<svg id="svg" version="1.1" xmlns="http://www.w3.org/2000/svg" xmlns:xlink="http://www.w3.org/1999/xlink" width="400" height="267.2" viewBox="0, 0, 400,267.2"><g id="svgg"><path id="path0" d="M198.763 132.367 C 198.591 132.746,198.227 133.126,197.955 133.213 C 197.584 133.330,197.469 133.614,197.493 134.353 C 197.510 134.895,197.579 135.127,197.646 134.870 C 197.713 134.613,198.030 134.350,198.350 134.286 C 200.968 133.763,201.916 133.880,202.276 134.770 C 202.473 135.260,202.507 135.218,202.521 134.462 C 202.535 133.758,202.403 133.536,201.845 133.324 C 201.463 133.178,201.088 132.821,201.012 132.529 C 200.935 132.236,200.656 131.997,200.391 131.997 C 200.127 131.997,199.723 131.925,199.494 131.838 C 199.216 131.731,198.973 131.907,198.763 132.367 M287.868 132.726 C 286.931 133.895,286.981 134.402,288.032 134.402 C 288.998 134.402,289.436 133.851,289.330 132.770 C 289.212 131.565,288.809 131.552,287.868 132.726 M242.107 132.489 C 241.416 133.780,242.013 134.745,243.132 134.146 C 243.860 133.757,243.834 133.297,243.042 132.553 C 242.401 131.950,242.395 131.950,242.107 132.489 M329.770 132.737 L 329.182 133.563 329.779 133.982 C 330.739 134.654,331.317 133.935,330.762 132.761 L 330.359 131.911 329.770 132.737 M164.904 132.889 L 164.290 133.543 164.892 133.965 C 165.891 134.664,166.608 133.727,165.858 132.702 C 165.540 132.267,165.477 132.279,164.904 132.889 M97.669 134.122 C 97.434 134.575,97.248 135.681,97.230 136.727 C 97.160 140.741,96.495 141.221,93.619 139.332 C 90.241 137.113,84.347 137.614,82.712 140.258 C 82.297 140.931,80.775 140.585,80.424 139.737 C 79.868 138.396,78.965 137.876,77.194 137.876 C 75.105 137.876,75.003 138.092,74.810 142.953 C 74.603 148.161,73.832 149.574,71.549 148.934 C 70.119 148.532,69.695 147.298,69.533 143.068 C 69.341 138.021,68.333 136.900,65.095 138.131 C 62.771 139.015,63.511 150.035,66.080 152.787 C 69.222 156.155,75.792 155.871,78.462 152.253 C 79.747 150.511,80.603 150.474,82.155 152.095 C 86.025 156.134,90.962 156.177,95.309 152.209 C 97.045 150.625,97.618 150.669,99.402 152.529 C 101.509 154.727,104.825 155.696,106.048 154.473 C 107.327 153.194,106.773 150.498,104.863 148.697 C 103.312 147.236,103.143 146.407,103.141 140.273 C 103.139 133.599,103.019 133.345,99.873 133.337 C 98.152 133.334,98.059 133.367,97.669 134.122 M185.705 134.929 L 185.037 135.439 184.903 142.469 C 184.716 152.313,185.072 154.434,187.001 154.970 C 190.236 155.869,191.692 154.106,188.834 152.750 C 187.257 152.002,187.183 151.783,187.082 147.557 C 186.969 142.860,187.138 141.593,188.012 140.554 C 188.748 139.678,188.699 139.050,187.802 137.902 C 187.527 137.550,187.228 136.801,187.138 136.238 C 186.882 134.638,186.519 134.306,185.705 134.929 M272.293 135.168 C 271.760 136.454,272.014 152.202,272.585 153.240 C 273.497 154.903,274.992 155.536,276.686 154.977 C 277.952 154.559,277.864 154.119,276.314 153.124 C 274.470 151.941,274.366 151.549,274.465 146.115 C 274.539 142.024,274.613 141.361,275.072 140.668 C 275.674 139.761,275.639 138.882,274.954 137.742 C 274.690 137.301,274.391 136.550,274.290 136.072 C 274.129 135.315,273.307 134.402,272.785 134.402 C 272.689 134.402,272.467 134.747,272.293 135.168 M120.374 138.742 C 119.933 138.894,119.419 139.058,119.232 139.109 C 118.821 139.219,118.500 139.965,118.753 140.219 C 118.854 140.319,120.191 140.364,121.724 140.319 C 125.280 140.216,126.178 140.498,127.057 141.998 C 128.461 144.395,127.380 145.684,123.891 145.772 C 120.330 145.861,119.441 146.084,118.103 147.227 L 116.900 148.253 116.900 150.533 L 116.900 152.813 117.957 153.895 L 119.013 154.977 121.480 154.977 C 125.693 154.977,126.658 154.052,122.878 153.637 C 119.661 153.284,118.461 151.045,120.010 148.288 C 120.686 147.086,121.026 146.969,123.878 146.964 C 127.556 146.958,128.832 149.021,127.348 152.576 C 127.011 153.382,128.557 154.803,129.536 154.588 L 130.394 154.400 130.394 149.357 C 130.394 141.883,129.930 140.450,127.073 139.098 C 125.488 138.349,122.052 138.166,120.374 138.742 M137.783 138.591 C 137.684 138.691,137.032 138.969,136.336 139.210 C 131.939 140.727,133.427 146.433,138.365 146.987 C 140.780 147.258,143.095 148.574,143.370 149.832 C 143.459 150.237,143.572 150.702,143.621 150.867 C 143.756 151.318,142.801 152.751,142.030 153.256 C 141.331 153.714,136.995 153.703,135.550 153.239 C 135.063 153.083,134.930 153.174,134.781 153.766 C 134.490 154.927,134.845 155.022,139.123 154.930 L 143.110 154.843 144.242 153.945 C 148.012 150.957,146.102 146.716,140.606 145.872 C 137.011 145.320,134.975 142.834,136.557 140.928 C 137.082 140.295,139.168 139.936,141.228 140.122 C 142.331 140.222,143.356 140.228,143.506 140.135 C 143.927 139.875,143.254 139.212,142.570 139.212 C 142.249 139.212,141.753 139.035,141.467 138.819 C 140.939 138.420,138.129 138.246,137.783 138.591 M152.722 138.650 C 152.622 138.812,152.311 138.945,152.031 138.945 C 150.348 138.945,148.564 140.844,148.564 142.635 C 148.564 145.060,150.254 146.615,153.325 147.016 C 160.453 147.945,160.290 153.800,153.142 153.593 C 151.041 153.532,150.098 153.603,149.860 153.841 C 148.257 155.444,157.579 155.458,159.404 153.856 C 162.813 150.862,160.951 146.775,155.778 145.899 C 151.594 145.191,149.738 142.624,152.054 140.748 C 152.655 140.261,153.079 140.201,156.179 140.167 C 158.316 140.144,158.631 139.905,157.568 139.112 C 156.707 138.469,153.050 138.120,152.722 138.650 M173.413 138.811 C 173.046 139.021,172.576 139.197,172.370 139.202 C 171.593 139.222,170.222 140.569,169.906 141.624 C 169.035 144.533,171.656 147.100,175.605 147.202 C 177.330 147.247,179.205 148.728,179.567 150.334 C 180.073 152.577,178.303 153.716,174.564 153.552 C 171.593 153.422,170.143 153.960,171.503 154.688 C 172.180 155.051,178.212 155.069,179.151 154.712 C 184.326 152.745,182.954 147.174,176.974 145.867 C 173.297 145.063,172.081 144.041,172.451 142.067 C 172.738 140.542,173.557 140.155,176.608 140.106 C 178.011 140.083,179.391 140.053,179.675 140.039 C 179.983 140.024,179.560 139.690,178.624 139.212 C 176.858 138.308,174.597 138.134,173.413 138.811 M216.394 139.163 L 215.953 139.961 217.195 140.147 C 220.090 140.581,220.418 141.387,220.462 148.163 C 220.502 154.432,220.984 156.221,222.193 154.592 C 222.749 153.843,222.754 142.287,222.199 140.958 C 221.305 138.818,217.271 137.571,216.394 139.163 M230.609 138.766 C 230.249 138.938,229.468 139.328,228.872 139.633 C 225.179 141.524,224.971 151.072,228.560 153.959 C 230.098 155.197,237.809 155.488,237.809 154.308 C 237.809 153.672,237.263 153.551,234.301 153.529 L 231.422 153.507 230.343 152.453 C 227.264 149.447,227.724 142.159,231.090 140.627 C 233.018 139.749,234.852 140.227,236.529 142.048 L 237.642 143.255 238.020 142.534 C 239.187 140.306,233.471 137.399,230.609 138.766 M250.167 138.985 C 247.794 139.941,248.283 140.297,251.904 140.248 C 256.409 140.188,257.849 140.987,257.849 143.548 C 257.849 145.309,257.450 145.525,253.805 145.739 C 249.280 146.003,248.321 146.536,247.449 149.268 C 246.999 150.677,247.462 152.713,248.520 153.980 L 249.241 154.843 252.187 154.843 C 253.807 154.843,255.225 154.751,255.338 154.638 C 255.734 154.241,254.968 153.875,253.411 153.719 C 249.819 153.358,248.638 150.763,250.858 148.107 L 251.817 146.961 254.185 146.961 C 257.662 146.961,258.833 148.284,258.167 151.459 C 257.772 153.341,259.330 155.587,260.408 154.692 C 261.369 153.895,260.762 142.262,259.677 140.667 C 258.255 138.577,253.339 137.708,250.167 138.985 M300.662 139.036 C 298.276 140.012,296.975 141.919,296.323 145.398 C 295.819 148.087,297.166 152.359,298.991 153.860 L 300.186 154.843 303.987 154.843 C 307.892 154.843,308.529 154.685,308.190 153.802 C 308.033 153.391,307.747 153.360,305.676 153.522 C 302.821 153.745,301.773 153.448,300.517 152.057 C 298.207 149.501,298.231 144.312,300.564 141.618 L 301.604 140.418 303.524 140.416 L 305.443 140.414 306.762 141.796 C 308.068 143.164,308.086 143.173,308.483 142.605 C 310.211 140.139,304.424 137.498,300.662 139.036 M318.771 138.677 C 318.771 138.824,318.541 139.174,318.260 139.455 C 317.757 139.959,317.773 139.969,319.303 140.147 C 322.358 140.501,322.726 141.385,322.832 148.621 C 322.919 154.596,323.148 155.549,324.318 154.811 C 325.407 154.124,325.510 143.437,324.452 141.043 C 323.678 139.296,318.771 137.252,318.771 138.677 M339.212 138.804 C 338.771 138.985,338.041 139.290,337.589 139.481 C 333.430 141.238,333.227 151.261,337.290 154.204 C 338.573 155.133,344.574 155.400,345.640 154.576 C 346.527 153.890,345.469 153.507,342.685 153.507 C 339.039 153.507,337.581 152.282,336.910 148.654 C 335.672 141.956,340.639 137.806,344.996 141.896 C 346.211 143.036,346.443 143.161,346.603 142.757 C 347.564 140.327,342.323 137.524,339.212 138.804 M353.774 138.582 C 349.901 139.836,350.073 140.297,354.397 140.253 C 358.929 140.208,360.187 140.957,360.187 143.699 C 360.187 145.343,359.719 145.582,356.169 145.751 C 351.726 145.963,351.004 146.286,349.760 148.620 C 348.849 150.329,349.189 152.124,350.811 154.175 C 351.316 154.814,351.465 154.843,354.227 154.843 C 358.525 154.843,359.577 154.077,355.759 153.727 C 352.068 153.389,350.713 150.646,353.007 148.157 L 354.109 146.961 356.567 146.961 C 360.176 146.961,361.613 148.853,360.332 151.919 C 359.739 153.337,361.667 155.588,362.723 154.711 C 363.219 154.300,363.305 145.620,362.838 143.095 C 362.176 139.513,357.732 137.300,353.774 138.582 M288.310 139.274 C 288.310 139.704,288.529 140.027,288.950 140.219 C 291.285 141.283,291.876 144.689,289.900 145.691 C 288.348 146.477,284.061 146.359,283.139 145.504 C 281.791 144.255,282.480 141.423,284.376 140.414 C 284.960 140.103,285.349 139.712,285.306 139.479 C 285.215 138.991,284.084 138.788,283.683 139.189 C 283.524 139.349,283.173 139.479,282.903 139.479 C 282.627 139.479,282.173 139.886,281.862 140.414 C 281.558 140.929,281.212 141.349,281.091 141.349 C 280.452 141.349,279.893 143.971,279.893 146.968 C 279.893 150.640,280.399 151.942,282.526 153.745 L 283.822 154.843 287.789 154.843 C 291.788 154.843,292.497 154.686,292.184 153.869 C 292.058 153.542,291.503 153.494,288.979 153.590 L 285.927 153.707 284.484 152.749 C 282.461 151.407,281.998 149.913,283.091 148.261 L 283.821 147.159 288.073 147.281 C 293.347 147.433,293.921 147.225,293.921 145.161 C 293.921 142.617,292.071 139.721,290.108 139.192 C 289.542 139.040,288.905 138.849,288.694 138.768 C 288.425 138.664,288.310 138.815,288.310 139.274 M196.794 139.180 C 194.895 139.571,194.211 140.301,193.011 143.211 C 191.647 146.518,192.748 151.689,195.263 153.792 L 196.520 154.843 200.264 154.919 C 204.434 155.005,204.989 154.858,204.431 153.817 C 204.118 153.231,203.991 153.187,203.305 153.426 C 199.215 154.852,193.868 151.614,195.453 148.671 C 196.188 147.306,196.953 147.132,201.513 147.294 C 206.265 147.462,206.549 147.341,206.542 145.157 C 206.534 142.440,204.959 139.745,203.045 139.172 C 201.261 138.637,200.444 139.608,202.001 140.413 C 203.794 141.340,204.496 144.559,203.140 145.633 C 201.996 146.539,196.322 146.321,195.570 145.342 C 194.446 143.879,195.495 140.886,197.345 140.275 C 198.014 140.054,198.254 139.841,198.148 139.564 C 198.064 139.346,197.996 139.118,197.996 139.056 C 197.996 138.935,197.972 138.937,196.794 139.180 M241.984 139.512 C 241.030 140.874,241.443 154.977,242.437 154.977 C 243.692 154.977,243.821 154.241,243.821 147.072 L 243.821 140.293 243.120 139.592 L 242.419 138.891 241.984 139.512 M164.765 139.820 L 164.061 140.523 164.065 146.882 C 164.070 153.531,164.211 154.469,165.239 154.667 C 166.108 154.834,166.191 154.179,166.195 147.078 C 166.200 139.175,166.070 138.515,164.765 139.820 M329.969 139.642 C 329.451 140.267,329.412 153.967,329.927 154.482 C 330.794 155.350,330.929 154.339,330.929 146.961 C 330.929 139.618,330.800 138.640,329.969 139.642 M210.182 139.902 C 209.939 140.535,209.995 153.989,210.242 154.379 C 210.382 154.599,210.750 154.657,211.307 154.546 L 212.158 154.375 212.167 148.998 C 212.173 145.386,212.301 143.050,212.555 141.884 C 212.898 140.310,212.893 140.116,212.495 139.813 C 211.861 139.331,210.379 139.388,210.182 139.902 M313.387 139.668 C 312.402 139.819,312.365 140.089,312.365 147.228 C 312.365 153.917,312.446 154.761,313.062 154.525 C 314.014 154.160,314.228 152.992,314.228 148.164 C 314.228 144.687,314.343 143.007,314.668 141.711 C 315.090 140.033,314.949 139.329,314.228 139.523 C 314.155 139.543,313.776 139.608,313.387 139.668 M90.902 144.900 C 92.589 147.553,89.357 150.466,87.046 148.375 C 85.779 147.227,86.335 144.600,87.950 144.109 C 88.900 143.820,90.485 144.244,90.902 144.900 " stroke="none" fill="#3d3d3d" fill-rule="evenodd"></path><path id="path1" d="M287.722 130.709 C 286.459 131.446,285.638 133.255,285.638 135.301 L 285.638 136.769 284.170 137.196 C 283.362 137.431,282.299 137.976,281.807 138.408 C 281.315 138.840,280.612 139.307,280.244 139.447 C 279.141 139.866,278.557 142.700,278.557 147.629 L 278.557 151.637 277.267 151.619 C 275.527 151.594,275.490 151.491,275.507 146.693 C 275.525 141.599,275.532 141.580,277.378 141.226 L 278.824 140.949 278.906 139.816 C 279.008 138.414,278.113 137.341,276.842 137.341 C 275.914 137.341,275.639 136.942,275.374 135.204 C 274.895 132.070,272.607 131.663,271.181 134.458 C 270.385 136.018,270.417 150.612,271.222 153.219 C 272.314 156.754,277.208 157.947,279.055 155.128 C 279.711 154.127,280.623 153.994,281.413 154.784 C 283.748 157.119,292.119 157.265,293.846 155.002 C 294.380 154.303,294.255 152.922,293.604 152.315 C 292.910 151.669,293.079 151.688,288.784 151.764 L 285.384 151.825 284.556 150.997 C 282.933 149.373,283.234 149.253,289.382 149.063 C 295.729 148.867,295.116 148.724,295.533 150.500 C 296.172 153.224,297.398 154.769,299.775 155.847 C 303.097 157.353,309.601 156.479,311.085 154.326 C 311.201 154.157,311.283 154.236,311.285 154.522 C 311.293 155.386,312.568 156.308,313.520 156.138 C 315.224 155.833,315.297 155.547,315.297 149.242 C 315.297 142.616,315.426 141.998,316.853 141.762 C 321.254 141.033,321.398 141.261,321.503 149.124 C 321.583 155.084,321.590 155.117,323.157 156.073 C 323.833 156.485,324.028 156.500,324.627 156.190 C 326.385 155.281,326.386 155.277,326.386 148.335 L 326.386 142.017 325.585 140.430 C 324.033 137.358,319.841 135.979,316.842 137.555 C 316.014 137.990,315.634 138.036,314.571 137.835 C 312.690 137.478,312.136 137.706,311.525 139.088 C 310.886 140.531,309.737 140.790,309.200 139.613 C 309.033 139.245,308.803 138.944,308.690 138.944 C 308.576 138.944,308.135 138.644,307.709 138.278 C 304.395 135.427,298.414 137.089,296.185 141.480 L 295.159 143.502 294.719 142.359 C 293.809 139.995,292.073 138.072,290.110 137.251 L 289.125 136.840 289.550 135.824 C 289.783 135.265,290.261 134.467,290.612 134.050 C 292.505 131.800,290.275 129.220,287.722 130.709 M198.100 130.903 C 196.424 131.925,195.111 134.536,195.552 135.971 C 195.810 136.811,195.774 136.999,195.250 137.582 C 194.107 138.852,192.334 140.548,192.149 140.548 C 191.620 140.548,191.029 146.960,191.347 149.236 C 191.720 151.899,191.601 152.147,190.151 151.746 C 187.689 151.067,187.500 142.550,189.918 141.226 C 191.461 140.380,191.588 140.186,191.293 139.117 C 191.100 138.419,190.721 137.942,189.991 137.482 C 189.272 137.028,188.866 136.525,188.649 135.817 C 187.776 132.977,187.093 132.350,185.466 132.896 C 183.771 133.464,183.571 134.273,183.540 140.677 C 183.526 143.766,183.418 146.593,183.300 146.961 C 183.182 147.328,183.074 147.480,183.059 147.298 C 182.991 146.449,179.277 144.738,175.551 143.840 C 173.391 143.319,173.270 143.208,173.936 142.360 C 174.670 141.427,175.490 141.279,178.004 141.623 C 180.416 141.953,182.241 141.213,182.224 139.910 C 182.172 135.821,171.201 136.006,169.192 140.130 L 168.679 141.181 167.907 140.090 C 167.482 139.489,166.929 138.625,166.679 138.170 C 166.312 137.501,166.053 137.341,165.336 137.341 C 163.200 137.341,162.737 138.518,162.708 144.021 C 162.697 146.152,162.585 148.136,162.458 148.430 C 162.243 148.930,162.227 148.924,162.210 148.333 C 162.189 147.627,160.358 145.799,159.262 145.389 C 158.135 144.968,154.367 143.830,153.440 143.631 C 152.766 143.486,152.572 143.307,152.572 142.830 C 152.572 141.724,153.159 141.525,155.938 141.691 C 159.754 141.919,161.114 141.128,160.541 139.013 C 160.117 137.448,159.375 137.208,154.966 137.208 C 149.453 137.208,147.361 138.715,147.361 142.685 C 147.361 145.972,149.166 147.737,153.507 148.696 C 156.092 149.267,156.487 149.474,156.654 150.346 C 156.905 151.649,156.569 151.770,152.709 151.770 C 149.547 151.770,149.096 151.828,148.475 152.317 L 147.779 152.865 147.664 152.251 C 147.601 151.913,147.427 150.819,147.277 149.820 C 146.775 146.480,145.352 145.440,138.982 143.758 C 137.863 143.463,137.823 143.417,137.982 142.620 C 138.203 141.519,138.110 141.560,140.193 141.637 C 144.471 141.795,144.576 141.784,145.116 141.117 C 145.624 140.490,145.773 139.374,145.459 138.556 C 144.728 136.652,136.853 136.480,134.666 138.321 C 130.208 142.071,132.247 147.345,138.677 148.697 C 141.320 149.253,141.794 149.492,141.959 150.347 C 142.216 151.690,141.865 151.814,138.028 151.736 C 133.854 151.651,132.532 152.255,132.532 154.249 C 132.532 157.284,143.208 157.516,145.784 154.536 C 146.746 153.424,147.378 153.465,148.071 154.686 C 149.158 156.604,155.067 157.383,158.435 156.053 C 160.015 155.429,162.112 153.602,162.259 152.721 C 162.312 152.408,162.495 152.821,162.685 153.678 C 163.289 156.410,165.135 157.085,167.015 155.261 L 168.150 154.159 167.834 151.549 C 167.482 148.646,167.655 146.093,168.272 145.110 L 168.678 144.462 169.174 145.430 C 169.954 146.949,173.205 148.824,175.075 148.832 C 176.231 148.838,177.452 149.450,177.853 150.227 C 178.544 151.562,177.999 151.770,173.823 151.770 C 169.613 151.770,169.138 151.971,169.138 153.748 C 169.138 158.201,180.536 157.594,182.956 153.013 C 183.187 152.576,183.302 152.662,183.933 153.738 C 185.021 155.595,186.178 156.348,188.192 156.509 C 190.705 156.711,191.364 156.288,192.346 153.841 L 192.641 153.106 193.721 154.278 C 197.119 157.964,207.184 157.323,206.616 153.456 C 206.381 151.862,205.882 151.673,202.049 151.735 C 198.116 151.798,197.535 151.653,197.045 150.486 C 196.524 149.247,197.015 149.098,201.652 149.097 C 205.163 149.096,205.712 149.035,206.503 148.552 C 208.254 147.485,208.674 148.132,208.681 151.904 C 208.688 155.346,209.674 156.726,211.753 156.204 C 213.195 155.842,213.352 155.140,213.445 148.654 L 213.530 142.706 214.413 142.161 C 215.318 141.602,216.932 141.397,217.929 141.715 C 218.950 142.041,219.105 142.961,219.105 148.697 C 219.105 154.692,219.209 155.201,220.607 156.066 C 222.420 157.186,223.728 155.770,224.151 152.230 C 224.435 149.853,224.958 148.220,224.975 149.657 C 225.001 151.883,226.613 154.498,228.724 155.739 C 230.442 156.750,236.808 156.819,238.375 155.845 C 239.301 155.269,241.015 155.015,241.015 155.453 C 241.015 156.753,243.757 156.470,244.669 155.076 C 245.312 154.095,245.271 140.322,244.621 138.765 C 243.986 137.245,241.966 136.777,241.238 137.982 C 241.139 138.144,240.675 138.805,240.207 139.450 L 239.354 140.624 238.831 139.797 C 235.583 134.668,226.424 136.841,225.130 143.048 L 224.788 144.689 224.469 143.487 C 223.906 141.364,223.857 141.234,223.193 140.091 C 222.217 138.409,220.939 137.409,219.490 137.191 C 217.753 136.931,214.952 137.200,214.188 137.700 C 213.692 138.025,213.343 138.063,212.653 137.865 C 210.381 137.213,209.168 137.875,208.789 139.974 C 208.430 141.969,207.266 142.802,206.937 141.301 C 206.841 140.865,206.235 139.914,205.590 139.187 C 204.255 137.685,203.992 136.967,204.392 135.916 C 204.625 135.303,204.555 134.944,203.977 133.788 C 202.423 130.684,200.227 129.606,198.100 130.903 M164.706 130.931 C 161.945 131.532,162.340 135.966,165.167 136.099 C 166.301 136.152,167.935 134.190,167.674 133.089 C 167.284 131.439,166.152 130.616,164.706 130.931 M241.631 130.981 C 239.037 132.234,240.805 137.051,243.485 136.032 C 244.795 135.533,245.508 133.135,244.761 131.739 C 244.327 130.928,242.604 130.511,241.631 130.981 M329.192 131.013 C 327.137 131.708,327.265 134.572,329.407 135.823 C 330.218 136.297,330.312 136.301,330.946 135.885 C 333.825 133.998,332.364 129.939,329.192 131.013 M200.391 131.997 C 200.656 131.997,200.935 132.236,201.012 132.529 C 201.088 132.821,201.463 133.178,201.845 133.324 C 202.403 133.536,202.535 133.758,202.521 134.462 C 202.507 135.218,202.473 135.260,202.276 134.770 C 201.916 133.880,200.968 133.763,198.350 134.286 C 198.030 134.350,197.713 134.613,197.646 134.870 C 197.579 135.127,197.510 134.895,197.493 134.353 C 197.469 133.614,197.584 133.330,197.955 133.213 C 198.227 133.126,198.591 132.746,198.763 132.367 C 198.973 131.907,199.216 131.731,199.494 131.838 C 199.723 131.925,200.127 131.997,200.391 131.997 M289.330 132.770 C 289.436 133.851,288.998 134.402,288.032 134.402 C 286.981 134.402,286.931 133.895,287.868 132.726 C 288.809 131.552,289.212 131.565,289.330 132.770 M45.495 132.189 C 45.901 132.250,46.502 132.249,46.831 132.185 C 47.159 132.122,46.827 132.072,46.092 132.074 C 45.357 132.076,45.088 132.128,45.495 132.189 M243.687 133.504 C 243.687 133.952,242.686 134.485,242.197 134.297 C 241.746 134.124,241.702 133.246,242.107 132.489 C 242.427 131.891,243.687 132.701,243.687 133.504 M330.771 134.006 C 330.424 134.354,330.306 134.351,329.779 133.982 L 329.182 133.563 329.770 132.737 L 330.359 131.911 330.762 132.761 C 331.117 133.511,331.118 133.659,330.771 134.006 M97.226 132.655 C 96.320 133.164,96.169 133.564,95.931 136.087 C 95.710 138.437,95.396 138.999,94.662 138.356 C 92.077 136.088,85.733 135.984,83.246 138.167 L 82.390 138.919 81.521 138.127 C 78.685 135.536,74.544 135.791,73.763 138.605 C 73.609 139.159,73.483 141.068,73.482 142.846 C 73.481 145.489,73.177 147.762,72.826 147.762 C 71.064 147.762,70.779 147.051,70.573 142.151 C 70.378 137.516,70.388 137.547,68.887 136.781 C 66.293 135.458,63.054 136.884,62.658 139.524 C 62.245 142.278,62.628 148.852,63.306 150.646 C 65.620 156.773,73.287 158.476,78.504 154.022 C 80.363 152.435,80.788 152.297,81.294 153.117 C 83.833 157.234,91.480 157.516,95.656 153.647 C 96.810 152.577,98.597 152.530,98.597 153.569 C 98.597 154.516,102.570 156.313,104.664 156.313 C 107.182 156.313,107.755 155.549,107.771 152.171 C 107.783 149.678,107.588 149.226,105.969 148.003 C 104.323 146.760,104.387 147.055,104.222 139.953 C 104.041 132.138,104.190 132.436,100.394 132.329 C 98.607 132.279,97.736 132.368,97.226 132.655 M166.199 133.485 C 166.199 134.156,165.521 134.405,164.892 133.965 L 164.290 133.543 164.904 132.889 C 165.533 132.220,166.199 132.526,166.199 133.485 M39.479 133.753 C 38.480 134.295,38.541 134.521,39.546 134.001 C 39.987 133.773,40.347 133.530,40.347 133.460 C 40.347 133.288,40.319 133.298,39.479 133.753 M101.953 133.538 C 103.025 134.283,103.140 134.930,103.141 140.273 C 103.143 146.407,103.312 147.236,104.863 148.697 C 106.773 150.498,107.327 153.194,106.048 154.473 C 104.825 155.696,101.509 154.727,99.402 152.529 C 97.618 150.669,97.045 150.625,95.309 152.209 C 90.962 156.177,86.025 156.134,82.155 152.095 C 80.603 150.474,79.747 150.511,78.462 152.253 C 75.792 155.871,69.222 156.155,66.080 152.787 C 63.511 150.035,62.771 139.015,65.095 138.131 C 68.333 136.900,69.341 138.021,69.533 143.068 C 69.695 147.298,70.119 148.532,71.549 148.934 C 73.832 149.574,74.603 148.161,74.810 142.953 C 75.003 138.092,75.105 137.876,77.194 137.876 C 78.965 137.876,79.868 138.396,80.424 139.737 C 80.775 140.585,82.297 140.931,82.712 140.258 C 84.347 137.614,90.241 137.113,93.619 139.332 C 96.495 141.221,97.160 140.741,97.230 136.727 C 97.280 133.834,97.671 133.332,99.873 133.337 C 100.861 133.340,101.797 133.430,101.953 133.538 M36.968 135.535 C 29.983 141.974,31.705 154.019,40.209 158.201 L 42.074 159.118 45.978 159.118 L 49.883 159.118 51.985 158.051 C 60.323 153.818,62.197 143.044,55.750 136.412 L 54.185 134.803 55.581 136.406 C 61.471 143.171,59.595 153.179,51.672 157.255 L 49.610 158.317 45.977 158.317 C 34.211 158.317,28.592 144.451,36.913 135.944 C 38.685 134.132,38.713 133.927,36.968 135.535 M187.138 136.238 C 187.228 136.801,187.527 137.550,187.802 137.902 C 188.699 139.050,188.748 139.678,188.012 140.554 C 187.138 141.593,186.969 142.860,187.082 147.557 C 187.183 151.783,187.257 152.002,188.834 152.750 C 191.692 154.106,190.236 155.869,187.001 154.970 C 185.072 154.434,184.716 152.313,184.903 142.469 L 185.037 135.439 185.705 134.929 C 186.519 134.306,186.882 134.638,187.138 136.238 M273.533 134.803 C 273.848 135.024,274.189 135.595,274.290 136.072 C 274.391 136.550,274.690 137.301,274.954 137.742 C 275.639 138.882,275.674 139.761,275.072 140.668 C 274.613 141.361,274.539 142.024,274.465 146.115 C 274.366 151.549,274.470 151.941,276.314 153.124 C 277.864 154.119,277.952 154.559,276.686 154.977 C 275.611 155.332,274.241 155.117,273.520 154.480 C 272.202 153.315,272.150 152.948,272.060 144.186 C 271.962 134.640,272.095 133.796,273.533 134.803 M118.973 137.335 C 115.013 138.275,116.506 142.643,120.527 141.880 C 123.347 141.345,125.530 141.729,125.954 142.833 C 126.236 143.568,125.941 143.690,123.418 143.890 C 118.096 144.311,115.442 146.578,115.443 150.701 C 115.444 155.547,120.316 158.067,125.701 156.006 C 126.932 155.535,127.323 155.487,127.875 155.738 C 128.979 156.241,130.840 156.128,131.257 155.533 C 131.612 155.027,131.676 142.921,131.332 141.441 C 131.105 140.467,128.149 137.678,127.007 137.361 C 125.851 137.040,120.291 137.022,118.973 137.335 M249.246 137.328 C 246.808 137.802,246.173 140.516,248.241 141.623 C 248.606 141.818,249.828 141.854,251.939 141.730 L 255.090 141.546 255.706 142.410 C 256.479 143.497,256.295 143.628,253.653 143.867 C 248.041 144.376,245.243 147.484,246.129 152.226 C 246.790 155.766,252.636 158.046,255.918 156.044 C 256.983 155.395,257.805 155.371,259.023 155.952 C 260.102 156.467,261.354 156.123,261.995 155.136 C 262.593 154.216,262.112 143.650,261.368 141.347 C 260.171 137.639,255.540 136.104,249.246 137.328 M338.630 137.331 C 336.933 137.735,334.499 140.117,333.966 141.896 C 333.469 143.555,333.254 143.312,332.255 139.964 C 331.439 137.230,329.938 136.635,328.551 138.496 C 327.881 139.395,327.536 152.261,328.123 154.441 C 328.919 157.398,331.926 156.576,332.516 153.240 C 332.620 152.652,332.892 151.880,333.121 151.525 L 333.537 150.880 334.008 152.119 C 334.625 153.744,335.953 155.153,337.609 155.940 C 340.331 157.234,346.629 156.677,347.643 155.053 C 347.969 154.531,349.766 154.501,349.766 155.018 C 349.766 156.367,356.438 157.153,358.292 156.023 C 359.275 155.424,360.435 155.478,361.808 156.188 C 362.556 156.575,363.329 156.275,364.128 155.287 C 364.697 154.584,364.574 144.886,363.966 142.547 C 362.778 137.974,361.063 136.940,354.973 137.124 C 350.571 137.256,349.986 137.481,349.457 139.245 C 349.133 140.329,349.143 140.364,350.013 141.142 L 350.899 141.934 354.205 141.743 C 357.465 141.555,357.518 141.561,358.039 142.186 C 359.102 143.463,358.684 143.836,356.093 143.923 C 351.279 144.085,348.738 146.075,348.040 150.231 C 347.810 151.603,347.434 151.728,343.461 151.752 L 339.987 151.773 339.134 150.893 C 337.374 149.077,337.356 144.595,339.102 142.794 C 340.597 141.252,342.707 141.386,344.019 143.107 C 345.333 144.829,346.543 145.092,347.829 143.935 C 348.427 143.397,348.724 141.349,348.204 141.349 C 348.079 141.349,347.771 140.893,347.519 140.334 C 346.346 137.733,342.459 136.419,338.630 137.331 M127.073 139.098 C 129.930 140.450,130.394 141.883,130.394 149.357 L 130.394 154.400 129.536 154.588 C 128.557 154.803,127.011 153.382,127.348 152.576 C 128.832 149.021,127.556 146.958,123.878 146.964 C 121.026 146.969,120.686 147.086,120.010 148.288 C 118.461 151.045,119.661 153.284,122.878 153.637 C 126.658 154.052,125.693 154.977,121.480 154.977 L 119.013 154.977 117.957 153.895 L 116.900 152.813 116.900 150.533 L 116.900 148.253 118.103 147.227 C 119.441 146.084,120.330 145.861,123.891 145.772 C 127.380 145.684,128.461 144.395,127.057 141.998 C 126.178 140.498,125.280 140.216,121.724 140.319 C 120.191 140.364,118.854 140.319,118.753 140.219 C 118.500 139.965,118.821 139.219,119.232 139.109 C 119.419 139.058,119.933 138.894,120.374 138.742 C 122.052 138.166,125.488 138.349,127.073 139.098 M141.467 138.819 C 141.753 139.035,142.249 139.212,142.570 139.212 C 143.254 139.212,143.927 139.875,143.506 140.135 C 143.356 140.228,142.331 140.222,141.228 140.122 C 139.168 139.936,137.082 140.295,136.557 140.928 C 134.975 142.834,137.011 145.320,140.606 145.872 C 146.102 146.716,148.012 150.957,144.242 153.945 L 143.110 154.843 139.123 154.930 C 134.845 155.022,134.490 154.927,134.781 153.766 C 134.930 153.174,135.063 153.083,135.550 153.239 C 136.995 153.703,141.331 153.714,142.030 153.256 C 142.801 152.751,143.756 151.318,143.621 150.867 C 143.572 150.702,143.459 150.237,143.370 149.832 C 143.095 148.574,140.780 147.258,138.365 146.987 C 133.427 146.433,131.939 140.727,136.336 139.210 C 137.032 138.969,137.684 138.691,137.783 138.591 C 138.129 138.246,140.939 138.420,141.467 138.819 M157.568 139.112 C 158.631 139.905,158.316 140.144,156.179 140.167 C 153.079 140.201,152.655 140.261,152.054 140.748 C 149.738 142.624,151.594 145.191,155.778 145.899 C 160.951 146.775,162.813 150.862,159.404 153.856 C 157.579 155.458,148.257 155.444,149.860 153.841 C 150.098 153.603,151.041 153.532,153.142 153.593 C 160.290 153.800,160.453 147.945,153.325 147.016 C 150.254 146.615,148.564 145.060,148.564 142.635 C 148.564 140.844,150.348 138.945,152.031 138.945 C 152.311 138.945,152.622 138.812,152.722 138.650 C 153.050 138.120,156.707 138.469,157.568 139.112 M178.624 139.212 C 179.560 139.690,179.983 140.024,179.675 140.039 C 179.391 140.053,178.011 140.083,176.608 140.106 C 173.557 140.155,172.738 140.542,172.451 142.067 C 172.081 144.041,173.297 145.063,176.974 145.867 C 182.954 147.174,184.326 152.745,179.151 154.712 C 178.212 155.069,172.180 155.051,171.503 154.688 C 170.143 153.960,171.593 153.422,174.564 153.552 C 177.630 153.687,178.253 153.491,179.189 152.102 C 180.474 150.195,178.336 147.273,175.605 147.202 C 171.656 147.100,169.035 144.533,169.906 141.624 C 170.222 140.569,171.593 139.222,172.370 139.202 C 172.576 139.197,173.046 139.021,173.413 138.811 C 174.597 138.134,176.858 138.308,178.624 139.212 M220.758 139.347 C 222.460 140.473,222.578 141.033,222.578 147.970 C 222.578 154.533,222.407 155.477,221.331 154.818 C 220.594 154.366,220.497 153.619,220.462 148.163 C 220.418 141.387,220.090 140.581,217.195 140.147 L 215.953 139.961 216.394 139.163 C 216.964 138.128,219.049 138.216,220.758 139.347 M235.137 138.958 C 237.529 139.898,238.664 141.305,238.020 142.534 L 237.642 143.255 236.529 142.048 C 234.852 140.227,233.018 139.749,231.090 140.627 C 227.724 142.159,227.264 149.447,230.343 152.453 L 231.422 153.507 234.301 153.529 C 237.263 153.551,237.809 153.672,237.809 154.308 C 237.809 155.488,230.098 155.197,228.560 153.959 C 224.971 151.072,225.179 141.524,228.872 139.633 C 231.028 138.529,231.285 138.455,232.732 138.522 C 233.540 138.560,234.623 138.756,235.137 138.958 M257.849 139.155 C 260.316 140.370,260.765 142.001,260.780 149.800 C 260.790 155.450,260.417 156.067,258.457 153.641 C 257.907 152.960,257.886 152.799,258.167 151.459 C 258.833 148.284,257.662 146.961,254.185 146.961 L 251.817 146.961 250.858 148.107 C 248.638 150.763,249.819 153.358,253.411 153.719 C 254.968 153.875,255.734 154.241,255.338 154.638 C 255.225 154.751,253.807 154.843,252.187 154.843 L 249.241 154.843 248.520 153.980 C 247.462 152.713,246.999 150.677,247.449 149.268 C 248.321 146.536,249.280 146.003,253.805 145.739 C 257.450 145.525,257.849 145.309,257.849 143.548 C 257.849 140.987,256.409 140.188,251.904 140.248 C 248.283 140.297,247.794 139.941,250.167 138.985 C 252.122 138.198,256.084 138.286,257.849 139.155 M306.088 139.117 C 308.318 140.173,309.243 141.520,308.483 142.605 C 308.086 143.173,308.068 143.164,306.762 141.796 L 305.443 140.414 303.524 140.416 L 301.604 140.418 300.564 141.618 C 298.231 144.312,298.207 149.501,300.517 152.057 C 301.773 153.448,302.821 153.745,305.676 153.522 C 307.747 153.360,308.033 153.391,308.190 153.802 C 308.529 154.685,307.892 154.843,303.987 154.843 L 300.186 154.843 298.991 153.860 C 297.614 152.728,296.745 150.806,296.371 148.070 C 295.469 141.456,300.750 136.590,306.088 139.117 M322.424 139.112 C 324.700 140.188,324.967 140.994,325.107 147.222 C 325.257 153.923,324.771 156.014,323.385 154.629 C 322.969 154.213,322.903 153.492,322.832 148.621 C 322.726 141.385,322.358 140.501,319.303 140.147 C 317.773 139.969,317.757 139.959,318.260 139.455 C 318.541 139.174,318.771 138.824,318.771 138.677 C 318.771 138.155,320.950 138.414,322.424 139.112 M343.593 139.046 C 346.013 140.030,347.135 141.412,346.603 142.757 C 346.443 143.161,346.211 143.036,344.996 141.896 C 340.639 137.806,335.672 141.956,336.910 148.654 C 337.581 152.282,339.039 153.507,342.685 153.507 C 345.469 153.507,346.527 153.890,345.640 154.576 C 344.574 155.400,338.573 155.133,337.290 154.204 C 333.227 151.261,333.430 141.238,337.589 139.481 C 338.041 139.290,338.771 138.985,339.212 138.804 C 340.482 138.281,341.904 138.360,343.593 139.046 M359.862 139.058 C 362.630 140.482,363.126 142.072,363.126 149.515 C 363.126 155.237,363.014 155.527,361.273 154.321 C 359.971 153.418,359.842 153.090,360.332 151.919 C 361.613 148.853,360.176 146.961,356.567 146.961 L 354.109 146.961 353.007 148.157 C 350.713 150.646,352.068 153.389,355.759 153.727 C 359.577 154.077,358.525 154.843,354.227 154.843 C 351.465 154.843,351.316 154.814,350.811 154.175 C 349.189 152.124,348.849 150.329,349.760 148.620 C 351.004 146.286,351.726 145.963,356.169 145.751 C 359.719 145.582,360.187 145.343,360.187 143.699 C 360.187 140.957,358.929 140.208,354.397 140.253 C 350.073 140.297,349.901 139.836,353.774 138.582 C 355.097 138.154,358.643 138.431,359.862 139.058 M290.108 139.192 C 292.071 139.721,293.921 142.617,293.921 145.161 C 293.921 147.225,293.347 147.433,288.073 147.281 L 283.821 147.159 283.091 148.261 C 281.998 149.913,282.461 151.407,284.484 152.749 L 285.927 153.707 288.979 153.590 C 291.503 153.494,292.058 153.542,292.184 153.869 C 292.497 154.686,291.788 154.843,287.789 154.843 L 283.822 154.843 282.526 153.745 C 280.399 151.942,279.893 150.640,279.893 146.968 C 279.893 143.971,280.452 141.349,281.091 141.349 C 281.212 141.349,281.558 140.929,281.862 140.414 C 282.173 139.886,282.627 139.479,282.903 139.479 C 283.173 139.479,283.524 139.349,283.683 139.189 C 284.084 138.788,285.215 138.991,285.306 139.479 C 285.349 139.712,284.960 140.103,284.376 140.414 C 282.480 141.423,281.791 144.255,283.139 145.504 C 284.061 146.359,288.348 146.477,289.900 145.691 C 291.876 144.689,291.285 141.283,288.950 140.219 C 288.233 139.893,287.987 138.496,288.694 138.768 C 288.905 138.849,289.542 139.040,290.108 139.192 M197.996 139.056 C 197.996 139.118,198.064 139.346,198.148 139.564 C 198.254 139.841,198.014 140.054,197.345 140.275 C 195.495 140.886,194.446 143.879,195.570 145.342 C 196.322 146.321,201.996 146.539,203.140 145.633 C 204.496 144.559,203.794 141.340,202.001 140.413 C 200.444 139.608,201.261 138.637,203.045 139.172 C 204.959 139.745,206.534 142.440,206.542 145.157 C 206.549 147.341,206.265 147.462,201.513 147.294 C 196.953 147.132,196.188 147.306,195.453 148.671 C 193.868 151.614,199.215 154.852,203.305 153.426 C 203.991 153.187,204.118 153.231,204.431 153.817 C 204.989 154.858,204.434 155.005,200.264 154.919 L 196.520 154.843 195.263 153.792 C 192.748 151.689,191.647 146.518,193.011 143.211 C 194.341 139.985,194.903 139.487,197.796 138.980 C 197.906 138.960,197.996 138.995,197.996 139.056 M243.821 147.072 C 243.821 154.241,243.692 154.977,242.437 154.977 C 241.443 154.977,241.030 140.874,241.984 139.512 L 242.419 138.891 243.120 139.592 L 243.821 140.293 243.821 147.072 M166.195 147.078 C 166.191 154.179,166.108 154.834,165.239 154.667 C 164.211 154.469,164.070 153.531,164.065 146.882 L 164.061 140.523 164.765 139.820 C 166.070 138.515,166.200 139.175,166.195 147.078 M330.929 146.961 C 330.929 154.339,330.794 155.350,329.927 154.482 C 329.412 153.967,329.451 140.267,329.969 139.642 C 330.800 138.640,330.929 139.618,330.929 146.961 M212.495 139.813 C 212.893 140.116,212.898 140.310,212.555 141.884 C 212.301 143.050,212.173 145.386,212.167 148.998 L 212.158 154.375 211.307 154.546 C 210.750 154.657,210.382 154.599,210.242 154.379 C 209.995 153.989,209.939 140.535,210.182 139.902 C 210.379 139.388,211.861 139.331,212.495 139.813 M314.735 139.723 C 315.053 139.924,315.043 140.222,314.668 141.711 C 314.343 143.007,314.228 144.687,314.228 148.164 C 314.228 152.992,314.014 154.160,313.062 154.525 C 312.446 154.761,312.365 153.917,312.365 147.228 C 312.365 140.089,312.402 139.819,313.387 139.668 C 313.776 139.608,314.155 139.543,314.228 139.523 C 314.302 139.503,314.530 139.593,314.735 139.723 M288.769 141.617 C 289.118 141.617,289.617 143.309,289.392 143.730 C 288.762 144.907,283.962 144.674,283.821 143.459 C 283.663 142.111,286.032 140.923,287.907 141.409 C 288.347 141.523,288.735 141.617,288.769 141.617 M201.763 142.179 C 202.841 143.333,202.776 143.930,201.536 144.275 C 198.957 144.991,196.358 144.324,196.763 143.050 C 197.372 141.129,200.305 140.618,201.763 142.179 M235.188 142.836 C 236.511 144.343,237.423 144.820,238.430 144.531 C 239.863 144.120,240.080 144.616,240.080 148.296 C 240.080 151.844,239.773 152.659,238.659 152.063 C 238.355 151.901,236.764 151.769,235.088 151.767 C 231.234 151.762,231.138 151.730,230.261 150.152 C 227.561 145.299,231.810 138.990,235.188 142.836 M305.922 143.086 C 307.416 144.511,307.509 144.556,308.966 144.556 C 310.178 144.556,310.522 144.656,310.745 145.073 C 311.058 145.657,311.119 151.216,310.818 151.656 C 310.480 152.149,309.635 152.328,309.231 151.992 C 308.968 151.774,307.841 151.691,305.708 151.733 C 301.600 151.814,301.442 151.743,300.534 149.401 C 299.653 147.127,299.646 146.790,300.433 144.556 C 301.595 141.258,303.478 140.754,305.922 143.086 M87.950 144.109 C 86.816 144.454,86.160 145.698,86.409 147.028 C 86.865 149.456,90.020 149.892,91.074 147.673 C 92.068 145.579,90.183 143.429,87.950 144.109 M89.524 145.847 C 90.126 146.335,90.126 146.343,89.630 147.184 C 89.005 148.241,88.687 148.247,88.075 147.210 C 87.287 145.876,88.338 144.887,89.524 145.847 M126.046 149.165 C 126.536 149.695,126.565 149.876,126.293 150.701 L 125.985 151.637 123.313 151.637 L 120.641 151.637 120.559 150.495 C 120.425 148.645,124.626 147.627,126.046 149.165 M256.121 148.951 C 257.348 149.464,257.500 151.077,256.362 151.510 C 255.383 151.882,251.879 151.839,251.490 151.450 C 249.755 149.715,253.331 147.786,256.121 148.951 M358.366 148.877 C 359.671 149.268,359.803 150.812,358.584 151.426 C 357.633 151.905,354.195 151.877,353.789 151.387 C 352.278 149.566,355.242 147.941,358.366 148.877 " stroke="none" fill="#9c9c9c" fill-rule="evenodd"></path><path id="path2" d="M50.530 144.044 C 48.305 144.934,45.165 149.628,45.158 152.075 C 45.152 154.239,41.706 153.795,39.206 151.307 C 38.187 150.294,37.461 149.300,36.959 148.230 C 35.945 146.067,34.014 146.610,34.263 148.989 C 34.864 154.718,39.383 158.317,45.977 158.317 L 49.610 158.317 51.672 157.255 C 57.334 154.342,60.471 147.442,57.321 144.828 C 56.422 144.082,51.776 143.545,50.530 144.044 " stroke="none" fill="#fc2020" fill-rule="evenodd"></path><path id="path3" d="M42.619 132.775 C 34.972 134.699,30.857 143.230,34.095 150.446 C 34.913 152.268,35.209 152.421,34.605 150.709 C 33.440 147.407,35.537 145.198,36.959 148.230 C 37.461 149.300,38.187 150.294,39.206 151.307 C 41.706 153.795,45.152 154.239,45.158 152.075 C 45.166 149.263,48.803 144.314,51.191 143.866 C 52.182 143.680,56.189 144.193,56.995 144.608 C 57.689 144.966,58.510 146.428,58.543 147.361 C 58.568 148.098,58.592 148.076,58.831 147.094 C 60.913 138.560,51.758 130.475,42.619 132.775 " stroke="none" fill="#fcb20a" fill-rule="evenodd"></path></g></svg>