<svg id="svg" version="1.1" xmlns="http://www.w3.org/2000/svg" xmlns:xlink="http://www.w3.org/1999/xlink" width="400" height="268.4931506849315" viewBox="0, 0, 400,268.4931506849315"><g id="svgg"><path id="path0" d="M193.239 118.226 C 190.511 119.016,190.120 123.679,192.663 125.090 C 194.280 125.987,196.842 125.293,197.477 123.787 C 198.946 120.305,196.617 117.248,193.239 118.226 M57.555 119.543 C 40.556 121.937,29.890 139.712,35.875 155.676 C 43.531 176.095,69.679 179.769,82.598 162.241 C 83.967 160.383,85.695 157.166,85.695 156.474 C 85.695 156.242,85.884 155.687,86.114 155.241 C 86.792 153.929,87.576 149.175,87.576 146.370 C 87.576 130.249,73.139 117.348,57.555 119.543 M248.535 131.377 C 240.284 132.478,236.272 138.410,236.282 149.496 C 236.293 162.827,242.720 168.466,256.142 166.924 C 263.666 166.060,265.280 165.176,264.369 162.416 C 263.590 160.053,263.637 160.063,259.106 161.302 C 250.443 163.670,243.835 161.137,242.198 154.820 C 241.214 151.021,240.484 151.242,253.992 151.242 L 265.172 151.242 265.594 150.235 C 266.290 148.576,265.624 142.471,264.396 139.250 C 262.176 133.429,256.028 130.378,248.535 131.377 M106.706 131.633 C 98.965 132.445,97.784 132.874,97.784 134.875 C 97.784 137.985,98.295 138.169,104.231 137.195 C 114.443 135.519,118.165 137.106,118.641 143.340 C 118.880 146.468,118.585 146.744,115.514 146.259 C 106.880 144.897,99.430 147.092,97.104 151.683 C 96.030 153.802,95.901 159.634,96.880 161.752 C 99.063 166.472,104.829 168.302,112.802 166.806 C 114.380 166.509,114.686 166.331,116.511 164.638 C 118.878 162.444,119.102 162.405,119.663 164.094 C 120.349 166.159,120.870 166.555,122.902 166.555 C 124.273 166.555,124.679 166.458,124.876 166.085 C 125.269 165.337,124.762 143.504,124.290 140.879 C 122.953 133.446,117.379 130.515,106.706 131.633 M139.960 131.615 C 135.837 132.186,133.260 133.665,131.510 136.463 L 130.423 138.202 130.438 141.163 C 130.470 147.404,133.264 149.708,142.780 151.344 C 147.969 152.236,149.797 153.253,150.558 155.673 C 152.313 161.251,146.627 163.450,136.007 161.300 C 131.473 160.382,131.177 160.498,130.673 163.399 C 130.300 165.545,131.564 166.126,138.079 166.802 C 150.505 168.092,156.629 164.777,156.612 156.768 C 156.599 150.638,153.811 148.190,144.661 146.275 C 137.905 144.861,136.348 144.067,135.693 141.698 C 134.390 136.976,142.019 134.802,150.673 137.428 C 153.158 138.182,153.499 137.988,154.191 135.419 C 154.522 134.186,154.278 133.450,153.377 132.967 C 151.819 132.134,142.785 131.223,139.960 131.615 M169.771 131.641 C 162.081 132.808,158.100 139.136,161.127 145.381 C 162.778 148.786,164.927 149.834,173.674 151.503 C 180.347 152.777,183.122 156.629,179.961 160.230 C 178.323 162.096,171.213 162.678,166.357 161.344 C 165.436 161.091,163.989 160.861,163.141 160.832 L 161.600 160.779 161.240 161.854 C 159.991 165.586,160.944 166.171,169.405 166.860 C 180.737 167.783,186.119 164.972,186.617 157.870 C 187.096 151.040,184.356 148.264,175.285 146.388 C 167.394 144.756,165.749 143.787,165.749 140.776 C 165.749 136.510,172.632 134.962,180.709 137.413 C 183.116 138.143,183.838 137.777,184.241 135.622 C 184.496 134.252,184.272 133.400,183.555 133.016 C 181.888 132.124,172.657 131.203,169.771 131.641 M217.037 131.617 C 215.550 131.890,214.077 132.616,212.376 133.915 C 210.045 135.695,209.520 135.629,208.607 133.445 C 207.943 131.856,205.986 131.344,204.664 132.414 L 204.030 132.928 204.030 149.297 C 204.030 168.209,203.761 166.555,206.829 166.555 C 209.779 166.555,209.537 167.770,209.537 152.968 C 209.537 138.353,209.521 138.544,210.740 137.966 C 213.332 136.736,220.367 136.127,222.344 136.962 C 224.908 138.044,225.104 139.203,225.111 153.399 C 225.119 167.582,224.888 166.555,228.069 166.555 C 231.293 166.555,231.028 167.720,231.027 153.574 C 231.027 138.548,230.818 136.964,228.499 134.360 C 226.591 132.217,221.023 130.885,217.037 131.617 M192.344 132.169 C 191.725 132.788,191.479 164.904,192.085 166.035 C 192.578 166.956,196.830 166.802,197.192 165.850 C 197.768 164.335,197.391 132.451,196.792 132.013 C 195.955 131.401,193.009 131.504,192.344 132.169 M255.608 136.659 C 258.008 137.926,259.772 141.082,259.772 144.108 C 259.772 146.609,260.548 146.407,250.920 146.407 C 240.588 146.407,241.165 146.618,242.046 143.165 C 243.069 139.159,244.575 137.505,248.489 136.090 C 249.569 135.699,254.544 136.097,255.608 136.659 M77.502 143.705 C 88.421 144.972,89.011 156.290,78.672 166.172 C 68.688 175.713,51.092 175.134,42.295 164.975 C 38.971 161.137,37.266 156.089,37.843 151.800 C 38.440 147.360,39.111 147.324,40.717 151.645 C 42.576 156.646,47.158 161.480,51.981 163.527 C 55.794 165.145,57.009 165.450,59.888 165.509 C 62.256 165.558,62.248 165.566,61.664 163.639 C 59.221 155.569,66.180 145.219,75.218 143.482 C 75.292 143.468,76.320 143.568,77.502 143.705 M118.246 151.150 C 119.094 151.917,118.976 159.088,118.101 159.963 C 116.244 161.819,107.356 162.921,104.715 161.622 C 101.283 159.935,101.113 154.060,104.437 152.003 C 106.457 150.753,117.082 150.097,118.246 151.150 " stroke="none" fill="#fc9514" fill-rule="evenodd"></path><path id="path1" d="M342.848 121.969 L 342.243 122.212 342.242 129.810 C 342.240 140.501,341.882 141.268,338.885 137.003 C 338.442 136.372,337.491 135.387,336.773 134.814 C 328.216 127.986,317.564 129.406,310.583 138.304 C 308.907 140.441,308.554 139.988,308.395 135.500 C 308.301 132.851,308.150 131.579,307.892 131.269 C 307.284 130.538,297.248 130.608,296.853 131.346 C 296.679 131.671,296.574 134.954,296.573 140.144 C 296.572 144.697,296.458 149.117,296.319 149.966 C 295.556 154.625,290.417 155.888,287.847 152.048 L 287.038 150.839 286.904 141.091 C 286.790 132.819,286.709 131.305,286.367 131.089 C 285.443 130.505,275.669 130.772,275.339 131.390 C 274.698 132.586,275.152 152.943,275.868 155.122 C 279.650 166.633,295.172 170.326,303.553 161.708 C 305.096 160.122,305.743 159.112,307.161 156.078 C 307.769 154.778,308.659 155.176,309.863 157.287 C 314.731 165.814,325.409 168.733,334.092 163.910 C 336.555 162.542,340.631 158.334,340.631 157.159 C 340.631 156.714,341.887 155.541,342.363 155.541 C 342.608 155.541,343.086 156.221,343.541 157.220 C 346.208 163.068,350.837 165.777,358.685 166.084 C 361.383 166.189,361.316 166.337,361.316 160.215 C 361.316 154.252,361.422 154.503,358.654 153.909 C 356.796 153.510,355.179 152.080,354.526 150.257 C 354.108 149.092,354.061 147.596,354.062 135.648 C 354.063 125.652,353.983 122.257,353.741 122.015 C 353.353 121.627,343.800 121.587,342.848 121.969 M327.883 143.190 C 332.522 145.795,332.059 151.959,327.069 154.044 C 324.110 155.280,320.394 153.086,319.661 149.671 C 318.625 144.839,323.698 140.840,327.883 143.190 " stroke="none" fill="#0c0c0c" fill-rule="evenodd"></path><path id="path2" d="M73.338 144.084 C 64.940 146.857,59.395 156.146,61.664 163.639 C 62.248 165.566,62.256 165.558,59.888 165.509 C 57.009 165.450,55.794 165.145,51.981 163.527 C 47.158 161.480,42.576 156.646,40.717 151.645 C 39.111 147.324,38.440 147.360,37.843 151.800 C 35.813 166.887,55.985 177.948,72.129 170.600 C 83.162 165.578,89.798 151.710,83.774 146.268 C 82.045 144.706,77.148 143.111,75.218 143.482 C 75.144 143.496,74.298 143.767,73.338 144.084 " stroke="none" fill="#fc1625" fill-rule="evenodd"></path></g></svg>