<svg id="svg" version="1.1" xmlns="http://www.w3.org/2000/svg" xmlns:xlink="http://www.w3.org/1999/xlink" width="400" height="266.6666666666667" viewBox="0, 0, 400,266.6666666666667"><g id="svgg"><path id="path0" d="M137.067 148.133 L 137.067 172.800 138.800 172.800 L 140.533 172.800 140.533 148.133 L 140.533 123.467 138.800 123.467 L 137.067 123.467 137.067 148.133 M188.267 148.133 L 188.267 172.800 189.467 172.800 L 190.667 172.800 190.667 169.766 C 190.667 166.375,190.854 165.956,192.233 166.259 C 193.035 166.435,194.933 168.533,194.933 169.244 C 194.933 169.440,195.125 169.600,195.358 169.600 C 195.592 169.600,195.846 169.840,195.923 170.133 C 195.999 170.427,196.239 170.667,196.456 170.667 C 196.673 170.667,196.913 170.907,196.989 171.200 C 197.066 171.493,197.339 171.733,197.595 171.733 C 197.852 171.733,198.358 171.967,198.720 172.252 C 199.083 172.537,199.997 172.852,200.752 172.952 C 201.506 173.052,202.261 173.299,202.428 173.500 C 202.842 173.999,205.170 173.984,205.588 173.481 C 205.778 173.252,206.670 173.020,207.777 172.911 C 208.947 172.795,209.696 172.594,209.782 172.371 C 209.857 172.175,210.316 171.940,210.801 171.849 C 211.357 171.745,211.733 171.495,211.817 171.175 C 211.890 170.895,212.133 170.667,212.357 170.667 C 212.581 170.667,212.840 170.427,212.933 170.133 C 213.026 169.840,213.262 169.600,213.456 169.600 C 213.650 169.600,213.879 169.322,213.964 168.983 C 214.049 168.643,214.362 168.085,214.659 167.742 C 214.957 167.399,215.200 166.915,215.200 166.667 C 215.200 166.419,215.440 165.999,215.733 165.733 C 216.123 165.381,216.267 164.912,216.267 163.995 C 216.267 163.142,216.438 162.521,216.800 162.061 C 217.303 161.421,217.333 160.979,217.333 154.291 C 217.333 147.556,217.307 147.173,216.800 146.667 C 216.440 146.307,216.267 145.778,216.267 145.042 C 216.267 144.355,216.069 143.700,215.733 143.273 C 215.440 142.900,215.200 142.388,215.200 142.134 C 215.200 141.651,213.424 139.723,212.107 138.778 C 211.387 138.261,210.112 137.906,206.800 137.301 C 204.384 136.860,198.602 137.839,198.077 138.778 C 197.947 139.010,197.636 139.224,197.387 139.254 C 197.137 139.284,199.474 139.374,202.579 139.454 C 207.829 139.590,208.269 139.639,208.846 140.160 C 209.187 140.468,209.677 140.795,209.933 140.885 C 210.190 140.976,210.400 141.234,210.400 141.458 C 210.400 141.683,210.566 141.867,210.769 141.867 C 211.183 141.867,212.386 144.201,212.666 145.551 C 212.768 146.038,213.018 146.758,213.223 147.151 C 213.767 148.192,213.767 161.941,213.223 162.982 C 213.018 163.375,212.767 164.078,212.664 164.544 C 212.416 165.675,211.181 168.024,210.747 168.190 C 210.556 168.264,210.400 168.495,210.400 168.704 C 210.400 168.912,210.190 169.162,209.933 169.259 C 209.677 169.355,209.345 169.596,209.195 169.795 C 208.919 170.163,208.124 170.665,206.933 171.223 C 204.281 172.466,198.298 171.171,196.240 168.909 C 195.741 168.361,195.090 167.662,194.792 167.356 C 194.494 167.050,194.100 166.500,193.915 166.133 C 193.730 165.767,193.405 165.167,193.193 164.800 C 192.981 164.433,192.806 163.607,192.804 162.963 C 192.801 162.159,192.654 161.685,192.333 161.451 C 191.837 161.088,191.775 158.006,191.744 132.067 L 191.733 123.467 190.000 123.467 L 188.267 123.467 188.267 148.133 M340.533 125.333 C 340.023 125.843,340.000 126.224,339.997 134.067 C 339.993 145.073,339.893 145.505,337.887 143.142 C 335.786 140.666,333.109 138.214,331.467 137.260 C 322.714 132.178,311.191 134.600,305.181 142.785 C 303.149 145.553,302.820 145.178,302.726 139.983 C 302.666 136.651,302.572 135.804,302.218 135.413 C 301.584 134.713,290.145 134.677,289.566 135.374 C 289.274 135.725,289.173 137.994,289.067 146.552 L 288.933 157.289 288.128 158.444 C 285.937 161.590,281.453 161.296,279.674 157.891 L 278.933 156.472 278.933 146.387 C 278.933 140.479,278.826 136.018,278.673 135.617 L 278.413 134.933 272.171 134.933 L 265.928 134.933 265.497 135.591 C 265.120 136.166,265.067 137.485,265.068 146.191 C 265.070 158.052,265.351 160.519,267.136 164.327 C 273.714 178.366,296.714 177.208,301.433 162.600 C 301.814 161.418,302.854 162.057,304.035 164.200 C 309.271 173.701,322.009 177.064,331.509 171.454 C 334.611 169.622,338.138 165.863,338.956 163.517 C 339.189 162.847,340.390 162.096,340.655 162.454 C 340.688 162.497,341.210 163.556,341.817 164.805 C 344.785 170.923,350.822 174.128,359.385 174.133 C 361.566 174.134,361.600 174.028,361.600 167.262 C 361.600 160.948,361.403 160.267,359.576 160.267 C 357.357 160.267,355.027 158.670,354.228 156.601 C 353.780 155.442,353.726 154.060,353.602 140.507 C 353.492 128.484,353.397 125.598,353.101 125.241 C 352.487 124.502,341.282 124.585,340.533 125.333 M236.568 136.999 C 235.780 137.053,234.880 137.257,234.568 137.452 C 234.255 137.647,233.524 137.891,232.941 137.993 C 231.271 138.287,227.200 141.149,227.200 142.030 C 227.200 142.102,226.900 142.603,226.533 143.143 C 226.167 143.682,225.867 144.332,225.867 144.587 C 225.867 144.842,225.639 145.504,225.360 146.058 C 224.176 148.412,224.199 162.132,225.389 164.000 C 225.623 164.367,225.896 165.027,225.996 165.467 C 226.096 165.907,226.590 166.807,227.095 167.467 C 227.600 168.127,228.081 168.866,228.164 169.109 C 228.248 169.352,228.545 169.611,228.825 169.684 C 229.104 169.757,229.333 170.008,229.333 170.242 C 229.333 170.489,229.556 170.667,229.867 170.667 C 230.160 170.667,230.621 170.888,230.892 171.158 C 231.162 171.429,231.835 171.723,232.387 171.813 C 232.939 171.902,233.540 172.180,233.723 172.430 C 234.234 173.130,248.393 173.094,248.906 172.393 C 249.127 172.090,249.742 171.885,250.689 171.798 C 252.463 171.636,252.800 171.386,252.800 170.234 C 252.800 169.210,251.982 168.990,250.857 169.713 C 250.532 169.921,249.667 170.177,248.933 170.281 C 248.200 170.384,247.278 170.633,246.884 170.832 C 245.249 171.662,237.956 171.552,235.467 170.660 C 233.214 169.854,230.667 168.237,230.667 167.614 C 230.667 167.457,230.427 167.178,230.133 166.995 C 229.840 166.812,229.600 166.423,229.600 166.131 C 229.600 165.839,229.360 165.360,229.067 165.067 C 228.773 164.773,228.533 164.262,228.533 163.929 C 228.533 163.597,228.288 162.868,227.988 162.308 C 227.370 161.155,227.055 158.399,227.405 157.200 L 227.638 156.400 240.819 156.267 L 254.000 156.133 253.904 151.600 C 253.829 148.091,253.719 146.966,253.414 146.621 C 253.198 146.375,252.955 145.681,252.874 145.077 C 252.782 144.388,252.542 143.881,252.230 143.714 C 251.957 143.568,251.733 143.272,251.733 143.057 C 251.733 142.428,248.708 139.200,248.118 139.200 C 247.946 139.200,247.505 138.964,247.139 138.676 C 246.773 138.388,245.891 138.022,245.181 137.862 C 244.470 137.703,243.764 137.475,243.611 137.356 C 243.281 137.098,238.600 136.861,236.568 136.999 M113.600 137.572 C 113.380 137.694,112.617 137.870,111.905 137.963 C 109.492 138.276,104.800 141.556,104.800 142.929 C 104.800 143.033,104.560 143.395,104.267 143.733 C 103.973 144.072,103.733 144.600,103.732 144.907 C 103.732 145.215,103.463 145.887,103.134 146.400 C 102.200 147.862,102.199 162.921,103.133 164.109 C 103.463 164.529,103.733 165.101,103.733 165.380 C 103.733 165.660,103.973 166.243,104.267 166.677 C 104.560 167.112,105.040 167.822,105.333 168.256 C 105.627 168.690,105.867 169.170,105.867 169.323 C 105.867 169.475,106.042 169.600,106.257 169.600 C 106.472 169.600,106.776 169.840,106.933 170.133 C 107.090 170.427,107.390 170.667,107.600 170.667 C 107.810 170.667,108.101 170.890,108.247 171.164 C 108.414 171.476,108.921 171.715,109.611 171.808 C 110.214 171.889,110.934 172.159,111.210 172.409 C 112.033 173.154,123.695 173.042,125.190 172.275 C 125.771 171.977,126.731 171.730,127.323 171.725 C 128.525 171.716,129.759 170.620,128.926 170.301 C 128.710 170.218,128.533 169.966,128.533 169.742 C 128.533 169.216,127.378 169.198,126.947 169.716 C 126.772 169.927,125.951 170.184,125.123 170.288 C 124.294 170.391,123.193 170.659,122.675 170.882 C 121.271 171.487,114.568 171.498,113.467 170.897 C 113.027 170.657,112.367 170.322,112.000 170.153 C 110.386 169.409,108.533 167.886,108.533 167.303 C 108.533 167.139,108.301 166.710,108.017 166.348 C 107.732 165.987,107.416 165.341,107.314 164.912 C 107.212 164.484,106.934 163.911,106.698 163.639 C 106.370 163.264,106.245 162.432,106.177 160.173 C 106.107 157.868,105.987 157.089,105.644 156.705 C 105.013 156.002,105.009 152.005,105.638 151.295 C 105.931 150.964,106.110 150.164,106.179 148.886 C 106.247 147.627,106.429 146.806,106.711 146.486 C 106.947 146.219,107.225 145.602,107.329 145.115 C 107.432 144.629,107.675 144.170,107.868 144.096 C 108.061 144.022,108.288 143.683,108.374 143.343 C 108.564 142.584,110.213 140.895,111.012 140.642 C 111.334 140.539,111.739 140.263,111.911 140.028 C 112.364 139.409,120.945 139.386,121.421 140.003 C 121.593 140.225,122.063 140.552,122.465 140.730 C 122.867 140.908,123.492 141.387,123.854 141.793 C 125.197 143.305,125.867 144.220,125.867 144.543 C 125.867 145.081,127.004 147.200,127.293 147.200 C 129.148 147.200,130.260 145.193,129.067 144.000 C 128.773 143.707,128.533 143.300,128.533 143.097 C 128.533 142.502,125.574 139.628,124.267 138.953 C 121.584 137.568,115.113 136.730,113.600 137.572 M150.578 138.044 C 150.152 138.471,150.386 160.634,150.826 161.467 C 151.058 161.907,151.341 163.107,151.454 164.133 C 151.601 165.453,151.903 166.430,152.487 167.467 C 152.942 168.273,153.499 169.323,153.727 169.800 C 153.954 170.277,154.319 170.667,154.537 170.667 C 154.755 170.667,155.156 170.889,155.428 171.161 C 155.700 171.434,156.270 171.743,156.695 171.849 C 157.119 171.955,157.673 172.227,157.924 172.454 C 158.741 173.190,169.316 173.062,170.279 172.305 C 170.678 171.990,171.270 171.733,171.595 171.733 C 171.919 171.733,172.401 171.493,172.667 171.200 C 172.932 170.907,173.303 170.667,173.490 170.667 C 173.677 170.667,173.907 170.427,174.000 170.133 C 174.093 169.840,174.317 169.600,174.498 169.600 C 174.678 169.600,174.974 169.191,175.154 168.692 C 175.335 168.193,175.659 167.717,175.875 167.634 C 176.090 167.551,176.267 167.256,176.267 166.978 C 176.267 166.700,176.507 166.167,176.800 165.794 C 177.173 165.319,177.333 164.712,177.333 163.770 C 177.333 162.423,177.756 161.067,178.176 161.067 C 178.299 161.067,178.400 155.847,178.400 149.467 L 178.400 137.867 176.700 137.867 L 175.000 137.867 174.864 149.667 C 174.735 160.833,174.697 161.549,174.164 162.993 C 173.854 163.833,173.600 164.756,173.600 165.044 C 173.600 165.333,173.478 165.644,173.329 165.736 C 173.180 165.828,172.898 166.285,172.701 166.752 C 172.323 167.649,170.957 169.333,170.607 169.333 C 170.493 169.333,170.160 169.573,169.867 169.867 C 169.573 170.160,169.108 170.400,168.833 170.400 C 168.557 170.400,167.882 170.588,167.333 170.818 C 164.118 172.161,156.281 169.769,156.269 167.441 C 156.268 167.207,156.042 166.812,155.766 166.563 C 155.434 166.262,155.204 165.556,155.080 164.455 C 154.974 163.514,154.700 162.587,154.447 162.306 C 154.046 161.862,153.991 160.587,153.916 149.839 L 153.832 137.867 152.294 137.867 C 151.448 137.867,150.676 137.947,150.578 138.044 M243.555 138.955 C 243.727 139.187,244.245 139.452,244.708 139.543 C 245.525 139.705,248.267 141.955,248.267 142.464 C 248.267 142.603,248.507 143.021,248.800 143.394 C 249.093 143.767,249.333 144.270,249.333 144.513 C 249.333 144.755,249.573 145.425,249.867 146.000 C 250.787 147.806,250.644 151.985,249.622 153.129 L 248.843 154.000 238.564 154.000 C 229.045 154.000,228.250 153.965,227.809 153.523 C 227.106 152.818,227.122 147.756,227.830 146.974 C 228.095 146.681,228.378 145.948,228.459 145.344 C 228.552 144.654,228.791 144.148,229.103 143.980 C 229.376 143.834,229.600 143.479,229.600 143.191 C 229.600 142.744,230.749 141.429,232.064 140.369 C 232.695 139.862,233.545 139.467,234.007 139.467 C 234.250 139.467,234.765 139.218,235.152 138.914 C 236.079 138.185,243.012 138.219,243.555 138.955 M323.535 148.390 C 327.550 150.068,328.732 155.229,325.851 158.510 C 322.171 162.701,315.203 159.924,315.203 154.267 C 315.203 149.913,319.659 146.771,323.535 148.390 " stroke="none" fill="#2c0a45" fill-rule="evenodd"></path><path id="path1" d="M137.067 123.067 C 137.067 123.381,137.437 123.467,138.800 123.467 C 140.163 123.467,140.533 123.381,140.533 123.067 C 140.533 122.752,140.163 122.667,138.800 122.667 C 137.437 122.667,137.067 122.752,137.067 123.067 M188.132 123.267 C 188.052 123.597,188.020 134.907,188.060 148.400 L 188.133 172.933 189.467 172.961 L 190.800 172.988 189.533 172.879 L 188.267 172.771 188.267 148.119 L 188.267 123.467 190.000 123.467 C 191.363 123.467,191.733 123.381,191.733 123.067 C 191.733 122.320,188.315 122.510,188.132 123.267 M136.931 148.400 L 136.933 172.933 138.800 172.933 L 140.667 172.933 140.669 148.267 L 140.671 123.600 140.601 148.200 L 140.531 172.800 138.800 172.800 L 137.069 172.800 136.999 148.333 L 136.929 123.867 136.931 148.400 M235.885 136.772 C 235.602 136.883,237.162 136.978,239.352 136.984 C 241.567 136.989,243.038 136.903,242.667 136.790 C 241.798 136.525,236.551 136.512,235.885 136.772 M111.006 137.735 C 108.570 138.512,106.419 140.031,104.914 142.035 C 103.731 143.610,103.228 144.931,104.267 143.733 C 104.560 143.395,104.800 143.033,104.800 142.929 C 104.800 141.528,109.316 138.403,112.149 137.844 C 118.583 136.576,123.647 137.703,127.000 141.151 C 127.843 142.018,128.533 142.596,128.533 142.436 C 128.533 142.181,126.437 140.005,125.184 138.959 C 122.879 137.037,115.256 136.378,111.006 137.735 M199.067 137.694 C 197.632 138.363,196.691 139.200,197.375 139.200 C 197.580 139.200,197.938 138.978,198.171 138.706 C 198.559 138.254,201.275 137.482,203.333 137.241 C 203.773 137.189,203.293 137.130,202.267 137.109 C 200.816 137.080,200.103 137.210,199.067 137.694 M207.067 137.316 C 211.796 138.299,211.906 138.349,214.041 140.504 C 214.678 141.147,215.200 141.541,215.200 141.377 C 215.200 139.860,210.785 137.281,208.000 137.172 C 206.397 137.109,206.212 137.138,207.067 137.316 M232.392 137.693 C 229.153 138.848,226.869 141.121,225.500 144.554 C 224.672 146.630,224.579 147.471,225.333 146.064 C 225.627 145.516,225.867 144.856,225.867 144.596 C 225.867 144.336,226.167 143.682,226.533 143.143 C 226.900 142.603,227.200 142.102,227.200 142.030 C 227.200 141.125,231.339 138.245,233.027 137.975 C 234.272 137.776,235.490 137.069,234.533 137.102 C 234.240 137.112,233.276 137.378,232.392 137.693 M243.587 137.312 C 243.670 137.447,244.350 137.688,245.098 137.848 C 245.846 138.009,246.761 138.379,247.132 138.670 C 247.502 138.962,247.946 139.200,248.118 139.200 C 248.491 139.200,250.673 141.250,251.102 142.003 C 251.268 142.295,251.499 142.443,251.614 142.332 C 251.730 142.222,251.620 141.922,251.371 141.666 C 251.122 141.410,250.582 140.840,250.171 140.400 C 248.359 138.458,242.636 135.774,243.587 137.312 M150.409 137.849 C 150.229 138.186,150.155 142.096,150.196 149.116 L 150.258 159.867 150.396 148.933 L 150.533 138.000 152.200 137.921 L 153.867 137.841 153.930 149.121 L 153.994 160.400 154.071 149.467 C 154.114 143.453,154.083 138.263,154.002 137.933 C 153.798 137.093,150.851 137.023,150.409 137.849 M174.813 137.933 C 174.741 138.263,174.636 143.213,174.580 148.933 C 174.448 162.203,173.822 165.658,171.013 168.589 C 170.621 168.998,170.416 169.333,170.557 169.333 C 170.949 169.333,172.299 167.708,172.701 166.752 C 172.898 166.285,173.180 165.828,173.329 165.736 C 173.478 165.644,173.600 165.333,173.600 165.044 C 173.600 164.756,173.854 163.833,174.164 162.993 C 174.697 161.549,174.735 160.833,174.864 149.667 L 175.000 137.867 176.700 137.867 C 177.656 137.867,178.400 137.750,178.400 137.600 C 178.400 136.972,174.952 137.292,174.813 137.933 M235.163 138.924 C 234.438 139.529,234.807 139.646,235.584 139.058 C 236.328 138.495,241.851 138.507,242.947 139.074 C 243.416 139.316,243.733 139.367,243.733 139.200 C 243.733 138.240,236.272 138.000,235.163 138.924 M191.829 140.772 C 191.838 142.205,191.902 142.560,192.065 142.070 C 192.189 141.700,192.183 140.813,192.053 140.099 C 191.822 138.827,191.817 138.841,191.829 140.772 M196.533 139.525 C 196.533 139.639,197.643 139.717,199.000 139.697 C 201.698 139.657,201.485 139.540,198.467 139.403 C 197.403 139.355,196.533 139.410,196.533 139.525 M112.667 139.653 C 112.373 139.722,112.013 139.931,111.866 140.117 C 111.718 140.303,111.334 140.539,111.012 140.642 C 110.255 140.882,108.615 142.522,108.375 143.278 C 108.273 143.601,108.033 143.985,107.842 144.132 C 107.652 144.280,107.418 144.760,107.324 145.200 L 107.152 146.000 107.691 145.067 C 107.987 144.553,108.344 143.893,108.484 143.598 C 109.402 141.662,112.225 139.969,114.933 139.731 L 116.933 139.555 115.067 139.542 C 114.040 139.534,112.960 139.585,112.667 139.653 M118.071 139.660 C 118.551 139.719,119.271 139.718,119.671 139.657 C 120.072 139.596,119.680 139.548,118.800 139.549 C 117.920 139.551,117.592 139.601,118.071 139.660 M206.513 139.695 C 207.382 139.797,208.142 140.027,208.202 140.207 C 208.262 140.386,208.433 140.533,208.581 140.533 C 208.730 140.533,209.200 140.782,209.626 141.085 C 210.051 141.388,210.400 141.504,210.400 141.343 C 210.400 141.182,210.190 140.976,209.933 140.885 C 209.677 140.795,209.195 140.476,208.863 140.177 C 208.414 139.773,207.833 139.617,206.596 139.571 L 204.933 139.508 206.513 139.695 M232.937 139.790 C 231.812 140.442,229.600 142.541,229.600 142.956 C 229.600 143.116,230.181 142.666,230.890 141.956 C 232.555 140.292,232.952 139.990,233.819 139.728 C 234.355 139.566,234.400 139.509,234.000 139.498 C 233.707 139.490,233.228 139.621,232.937 139.790 M244.957 139.823 C 245.982 140.298,247.679 142.003,248.185 143.067 C 249.045 144.874,249.325 145.258,249.329 144.636 C 249.332 144.326,249.093 143.767,248.800 143.394 C 248.507 143.021,248.267 142.603,248.267 142.464 C 248.267 141.999,245.588 139.740,244.857 139.589 C 244.171 139.448,244.176 139.460,244.957 139.823 M120.949 140.112 C 121.507 140.520,121.760 140.475,121.478 140.018 C 121.381 139.861,121.106 139.733,120.867 139.733 C 120.503 139.733,120.516 139.795,120.949 140.112 M122.708 141.267 C 123.872 142.234,124.781 143.263,124.792 143.625 C 124.804 144.055,125.867 144.965,125.867 144.546 C 125.867 143.990,123.573 141.285,122.710 140.823 C 121.788 140.330,121.787 140.501,122.708 141.267 M210.923 142.450 C 211.222 142.771,211.467 143.195,211.467 143.393 C 211.467 143.591,211.639 144.018,211.849 144.343 C 212.971 146.076,213.366 149.280,213.257 155.776 C 213.139 162.874,212.553 165.628,210.692 167.839 C 210.353 168.242,210.345 168.320,210.649 168.223 C 211.122 168.072,212.400 165.750,212.659 164.570 C 212.764 164.090,213.018 163.375,213.223 162.982 C 213.767 161.941,213.767 148.192,213.223 147.151 C 213.018 146.758,212.768 146.038,212.666 145.551 C 212.383 144.186,211.182 141.867,210.758 141.867 C 210.481 141.867,210.525 142.023,210.923 142.450 M215.200 142.329 C 215.200 142.826,216.248 143.928,216.258 143.441 C 216.263 143.207,216.027 142.799,215.733 142.533 C 215.440 142.268,215.200 142.176,215.200 142.329 M251.733 143.013 C 251.733 143.252,252.003 143.590,252.333 143.763 L 252.933 144.078 252.403 143.439 C 252.111 143.087,251.841 142.750,251.803 142.689 C 251.765 142.628,251.733 142.774,251.733 143.013 M128.533 143.200 C 128.533 143.347,128.773 143.707,129.067 144.000 C 129.360 144.293,129.600 144.413,129.600 144.267 C 129.600 144.120,129.360 143.760,129.067 143.467 C 128.773 143.173,128.533 143.053,128.533 143.200 M228.998 144.033 C 228.742 144.176,228.533 144.467,228.533 144.680 C 228.533 144.964,228.681 144.919,229.089 144.511 C 229.724 143.876,229.681 143.651,228.998 144.033 M103.090 145.548 C 102.811 146.166,102.653 146.742,102.739 146.828 C 102.969 147.058,103.779 145.368,103.681 144.860 C 103.630 144.592,103.402 144.857,103.090 145.548 M125.867 145.253 C 125.867 146.238,126.678 147.458,127.333 147.458 C 127.481 147.458,127.466 147.371,127.300 147.263 C 127.135 147.155,126.745 146.588,126.433 146.004 C 126.122 145.419,125.867 145.082,125.867 145.253 M216.288 145.482 C 216.262 146.140,216.941 147.148,217.221 146.868 C 217.330 146.759,217.235 146.459,217.011 146.202 C 216.787 145.944,216.537 145.553,216.456 145.333 C 216.353 145.053,216.302 145.097,216.288 145.482 M249.333 145.567 C 249.333 145.696,249.513 146.232,249.733 146.759 C 250.431 148.430,250.272 151.587,249.435 152.684 L 248.737 153.600 238.517 153.600 L 228.297 153.600 227.882 153.007 C 227.570 152.563,227.467 152.521,227.467 152.841 C 227.467 153.959,227.865 154.000,238.596 154.000 L 248.843 154.000 249.622 153.129 C 250.542 152.100,250.771 148.072,250.014 146.258 C 249.646 145.378,249.333 145.061,249.333 145.567 M228.288 146.167 C 228.276 146.406,228.087 146.751,227.867 146.933 C 227.647 147.116,227.469 147.461,227.471 147.699 C 227.474 147.966,227.689 147.801,228.028 147.271 C 228.332 146.796,228.519 146.256,228.445 146.071 C 228.356 145.851,228.301 145.885,228.288 146.167 M253.067 146.068 C 253.067 146.215,253.247 146.484,253.467 146.667 C 253.690 146.852,253.867 146.881,253.867 146.732 C 253.867 146.585,253.687 146.316,253.467 146.133 C 253.244 145.948,253.067 145.919,253.067 146.068 M106.681 146.516 C 106.500 146.734,106.307 147.427,106.252 148.056 L 106.151 149.200 106.365 148.214 C 106.482 147.672,106.735 147.039,106.927 146.808 C 107.119 146.576,107.216 146.327,107.143 146.254 C 107.069 146.180,106.861 146.299,106.681 146.516 M128.384 146.792 C 127.877 147.175,127.878 147.183,128.434 147.192 C 128.746 147.196,129.151 147.020,129.333 146.800 C 129.786 146.254,129.103 146.248,128.384 146.792 M102.307 148.812 C 102.215 149.699,102.009 150.667,101.851 150.963 C 101.472 151.670,101.692 158.671,102.174 161.276 C 102.511 163.096,102.533 162.711,102.533 155.210 C 102.533 150.804,102.520 147.200,102.505 147.200 C 102.489 147.200,102.400 147.926,102.307 148.812 M224.197 150.035 C 223.628 153.548,223.597 157.400,224.122 159.583 C 224.336 160.472,224.560 161.500,224.619 161.867 C 224.835 163.195,224.784 160.697,224.540 158.000 C 224.389 156.327,224.400 153.967,224.569 151.665 C 224.916 146.950,224.788 146.389,224.197 150.035 M253.961 150.267 C 253.961 151.587,254.006 152.160,254.062 151.541 C 254.117 150.922,254.118 149.842,254.063 149.141 C 254.008 148.440,253.962 148.947,253.961 150.267 M227.288 150.533 C 227.289 151.560,227.337 151.947,227.395 151.394 C 227.452 150.841,227.451 150.001,227.392 149.527 C 227.334 149.054,227.286 149.507,227.288 150.533 M75.333 149.715 C 66.872 152.433,60.538 162.055,62.243 169.600 C 63.227 173.958,63.250 173.926,59.467 173.571 C 49.122 172.599,40.880 165.838,37.602 155.633 L 37.270 154.600 36.729 155.454 C 35.686 157.100,35.442 160.483,36.152 163.450 C 36.847 166.354,37.924 169.707,38.307 170.154 C 38.505 170.386,38.667 170.716,38.667 170.887 C 38.667 171.515,42.480 175.189,44.639 176.640 C 59.496 186.628,79.046 181.944,87.588 166.349 C 88.449 164.776,90.105 160.206,89.648 160.663 C 89.552 160.759,89.335 159.592,89.166 158.069 C 88.839 155.119,88.100 153.182,86.893 152.111 C 84.105 149.638,78.918 148.563,75.333 149.715 M105.571 151.368 C 105.059 151.985,105.059 156.015,105.571 156.632 C 106.113 157.285,106.205 156.999,105.740 156.106 C 105.211 155.092,105.224 153.244,105.768 152.097 C 106.252 151.078,106.144 150.678,105.571 151.368 M227.589 156.551 C 227.306 157.008,227.560 157.053,228.118 156.645 C 228.551 156.329,228.564 156.267,228.200 156.267 C 227.961 156.267,227.686 156.395,227.589 156.551 M227.280 158.933 C 227.280 159.740,227.330 160.070,227.391 159.667 C 227.452 159.263,227.452 158.603,227.391 158.200 C 227.330 157.797,227.280 158.127,227.280 158.933 M191.871 159.957 C 191.939 161.096,192.352 161.870,192.705 161.517 C 192.804 161.418,192.696 161.126,192.464 160.868 C 192.232 160.611,191.988 160.040,191.922 159.600 C 191.856 159.160,191.833 159.320,191.871 159.957 M150.417 161.200 C 150.425 161.493,150.667 162.573,150.955 163.600 L 151.480 165.467 151.366 163.867 C 151.259 162.369,150.384 159.909,150.417 161.200 M154.139 161.367 C 154.136 161.753,154.313 162.217,154.533 162.400 C 154.753 162.583,154.951 163.107,154.973 163.566 C 155.008 164.288,155.027 164.309,155.119 163.723 C 155.177 163.351,154.982 162.511,154.685 161.857 C 154.223 160.838,154.144 160.768,154.139 161.367 M227.476 161.082 C 227.471 161.311,227.643 161.731,227.858 162.016 C 228.360 162.679,228.365 162.206,227.867 161.333 C 227.622 160.906,227.482 160.816,227.476 161.082 M177.643 161.746 C 177.473 162.119,177.344 162.689,177.357 163.013 C 177.376 163.457,177.442 163.392,177.628 162.746 C 177.764 162.277,177.993 161.820,178.138 161.731 C 178.458 161.533,178.485 161.067,178.176 161.067 C 178.053 161.067,177.813 161.372,177.643 161.746 M106.258 162.224 C 106.371 163.215,106.871 164.152,107.143 163.880 C 107.216 163.806,107.124 163.563,106.937 163.338 C 106.751 163.114,106.496 162.541,106.371 162.065 C 106.149 161.224,106.146 161.229,106.258 162.224 M216.694 162.175 C 216.459 162.511,216.267 163.024,216.267 163.316 C 216.267 163.675,216.438 163.510,216.796 162.808 C 217.396 161.631,217.336 161.259,216.694 162.175 M192.831 163.467 C 192.818 163.833,192.981 164.433,193.193 164.800 C 193.405 165.167,193.730 165.767,193.915 166.133 C 194.100 166.500,194.495 167.040,194.793 167.333 C 195.091 167.627,195.574 168.172,195.867 168.546 C 196.539 169.403,198.077 170.546,198.282 170.341 C 198.367 170.255,198.116 169.964,197.724 169.693 C 197.105 169.265,196.225 168.428,194.824 166.933 C 194.617 166.713,194.290 166.173,194.096 165.733 C 193.903 165.293,193.640 164.859,193.512 164.768 C 193.384 164.677,193.184 164.197,193.067 163.701 C 192.893 162.962,192.850 162.920,192.831 163.467 M224.800 163.285 C 224.800 163.548,225.043 164.296,225.340 164.947 C 225.636 165.599,225.993 166.432,226.133 166.799 C 226.273 167.166,226.510 167.467,226.660 167.467 C 226.810 167.467,226.933 167.617,226.933 167.801 C 226.933 167.984,227.473 168.714,228.133 169.423 C 228.922 170.270,229.333 170.558,229.333 170.264 C 229.333 170.018,229.104 169.757,228.825 169.684 C 228.545 169.611,228.248 169.352,228.164 169.109 C 228.081 168.866,227.600 168.127,227.095 167.467 C 226.590 166.807,226.092 165.907,225.987 165.467 C 225.726 164.374,224.800 162.672,224.800 163.285 M102.676 163.877 C 102.671 164.029,102.907 164.625,103.200 165.200 C 103.493 165.775,103.733 166.382,103.733 166.548 C 103.733 166.715,103.973 167.068,104.267 167.333 C 104.560 167.599,104.800 167.953,104.800 168.120 C 104.800 168.509,106.552 170.347,107.697 171.158 C 108.539 171.755,108.565 171.758,108.280 171.225 C 108.116 170.918,107.810 170.667,107.600 170.667 C 107.390 170.667,107.090 170.427,106.933 170.133 C 106.776 169.840,106.472 169.600,106.257 169.600 C 106.042 169.600,105.867 169.475,105.867 169.323 C 105.867 169.170,105.604 168.660,105.284 168.189 C 104.964 167.718,104.484 167.008,104.217 166.611 C 103.951 166.213,103.733 165.657,103.733 165.374 C 103.733 164.848,102.692 163.374,102.676 163.877 M228.533 164.267 C 228.533 164.413,228.773 164.773,229.067 165.067 C 229.360 165.360,229.600 165.480,229.600 165.333 C 229.600 165.187,229.360 164.827,229.067 164.533 C 228.773 164.240,228.533 164.120,228.533 164.267 M107.467 165.494 C 107.467 165.579,107.707 165.954,108.000 166.327 C 108.317 166.730,108.533 166.853,108.533 166.629 C 108.533 166.421,108.293 166.046,108.000 165.795 C 107.707 165.544,107.467 165.408,107.467 165.494 M155.200 165.695 C 155.200 165.890,155.440 166.268,155.733 166.533 C 156.149 166.910,156.267 166.932,156.267 166.634 C 156.267 166.424,156.027 166.046,155.733 165.795 C 155.339 165.457,155.200 165.431,155.200 165.695 M176.717 165.876 C 176.096 166.763,176.152 167.048,176.817 166.383 C 177.119 166.081,177.322 165.698,177.267 165.533 C 177.212 165.369,176.964 165.523,176.717 165.876 M215.600 165.867 C 215.333 166.162,215.174 166.463,215.248 166.537 C 215.321 166.610,215.600 166.428,215.867 166.133 C 216.134 165.838,216.292 165.537,216.219 165.463 C 216.146 165.390,215.867 165.572,215.600 165.867 M151.468 166.039 C 151.466 166.483,152.957 169.351,153.597 170.133 L 154.142 170.800 153.866 170.035 C 153.714 169.615,153.352 168.969,153.061 168.599 C 152.771 168.230,152.533 167.794,152.532 167.631 C 152.531 167.467,152.291 166.973,152.000 166.533 C 151.709 166.093,151.469 165.871,151.468 166.039 M229.600 166.228 C 229.600 166.467,229.840 166.812,230.133 166.995 C 230.427 167.178,230.667 167.449,230.667 167.597 C 230.667 167.864,232.357 169.333,232.663 169.333 C 232.750 169.333,233.162 169.585,233.578 169.893 C 233.994 170.200,234.547 170.410,234.807 170.359 C 235.128 170.297,234.859 170.059,233.974 169.623 C 232.417 168.856,231.375 168.027,230.353 166.741 C 229.867 166.130,229.600 165.947,229.600 166.228 M191.000 166.436 C 190.817 166.621,190.683 167.079,190.703 167.453 C 190.735 168.053,190.753 168.065,190.852 167.553 C 191.172 165.908,192.722 166.379,194.133 168.550 C 194.683 169.396,196.840 171.515,196.995 171.361 C 197.201 171.154,196.795 170.667,196.415 170.667 C 196.221 170.667,195.999 170.427,195.923 170.133 C 195.846 169.840,195.605 169.600,195.387 169.600 C 195.169 169.600,194.917 169.330,194.826 169.000 C 194.353 167.287,191.829 165.595,191.000 166.436 M108.533 167.338 C 108.533 167.619,110.212 169.327,110.491 169.330 C 110.615 169.332,111.021 169.573,111.394 169.867 C 111.767 170.160,112.252 170.400,112.472 170.400 C 112.735 170.400,112.640 170.217,112.194 169.867 C 111.821 169.573,111.382 169.333,111.219 169.333 C 111.055 169.333,110.384 168.838,109.727 168.233 C 109.071 167.627,108.533 167.225,108.533 167.338 M156.267 167.500 C 156.267 167.975,158.649 170.071,159.405 170.261 C 160.511 170.538,160.360 170.226,159.092 169.612 C 158.431 169.292,157.525 168.614,157.078 168.106 C 156.632 167.597,156.267 167.325,156.267 167.500 M214.788 167.560 C 214.272 168.128,214.100 168.533,214.375 168.533 C 214.525 168.533,214.782 168.283,214.946 167.977 C 215.287 167.340,215.199 167.108,214.788 167.560 M175.649 167.856 C 175.165 168.340,174.815 169.304,175.042 169.531 C 175.129 169.618,175.200 169.527,175.200 169.328 C 175.200 169.130,175.460 168.690,175.779 168.352 C 176.424 167.665,176.303 167.202,175.649 167.856 M127.733 169.067 C 127.410 169.276,127.448 169.326,127.933 169.329 C 128.278 169.332,128.533 169.498,128.533 169.720 C 128.533 169.933,128.721 170.212,128.950 170.340 C 129.328 170.552,129.328 170.606,128.950 170.919 C 128.483 171.307,128.399 171.733,128.791 171.733 C 129.484 171.733,129.594 170.694,129.000 169.763 C 128.334 168.719,128.300 168.700,127.733 169.067 M250.800 169.248 C 250.507 169.314,249.547 169.587,248.667 169.856 C 245.211 170.910,240.840 171.151,236.400 170.530 L 235.333 170.380 236.133 170.849 C 237.261 171.509,245.570 171.542,246.800 170.892 C 247.240 170.660,248.200 170.384,248.933 170.281 C 249.667 170.177,250.517 169.931,250.824 169.734 C 251.130 169.538,251.730 169.325,252.157 169.262 L 252.933 169.147 252.133 169.138 C 251.693 169.133,251.093 169.182,250.800 169.248 M125.200 169.885 L 124.133 170.397 125.333 170.239 C 126.588 170.074,127.839 169.314,126.790 169.353 C 126.502 169.364,125.787 169.603,125.200 169.885 M169.397 169.745 C 168.588 170.312,164.200 170.924,162.980 170.640 C 162.441 170.515,161.640 170.414,161.200 170.416 L 160.400 170.419 161.067 170.800 C 161.991 171.329,166.110 171.329,167.374 170.800 C 167.901 170.580,168.534 170.400,168.782 170.400 C 169.313 170.400,170.332 169.709,170.117 169.495 C 170.035 169.413,169.711 169.525,169.397 169.745 M208.687 169.901 C 208.404 170.175,208.300 170.400,208.454 170.400 C 208.762 170.400,209.473 169.643,209.305 169.495 C 209.247 169.444,208.969 169.627,208.687 169.901 M212.942 170.105 C 212.854 170.382,212.546 170.671,212.258 170.746 C 211.969 170.822,211.733 171.069,211.733 171.296 C 211.733 171.616,211.868 171.577,212.336 171.121 C 213.285 170.196,213.696 169.600,213.384 169.600 C 213.229 169.600,213.031 169.827,212.942 170.105 M252.800 170.569 C 252.800 170.857,252.656 171.237,252.480 171.413 C 252.237 171.656,252.236 171.733,252.475 171.733 C 252.823 171.733,253.228 170.473,252.965 170.210 C 252.874 170.119,252.800 170.280,252.800 170.569 M113.416 170.767 C 114.476 171.605,121.007 171.611,122.800 170.775 C 123.538 170.432,123.455 170.418,121.733 170.601 C 119.315 170.859,115.953 170.855,114.267 170.593 C 113.083 170.409,112.988 170.428,113.416 170.767 M198.667 170.518 C 198.667 170.920,200.539 171.422,202.533 171.556 C 204.165 171.666,204.385 171.645,203.467 171.469 C 202.174 171.221,200.576 170.856,199.400 170.540 C 198.997 170.431,198.667 170.421,198.667 170.518 M206.809 170.720 C 206.521 170.887,205.921 171.121,205.476 171.239 C 204.832 171.411,204.930 171.435,205.961 171.357 C 206.679 171.303,207.446 171.068,207.685 170.830 C 208.213 170.301,207.653 170.231,206.809 170.720 M154.867 171.252 C 155.189 171.574,155.545 171.744,155.659 171.630 C 155.773 171.516,155.633 171.253,155.349 171.045 C 154.545 170.457,154.214 170.600,154.867 171.252 M172.667 171.200 C 172.401 171.493,172.296 171.733,172.433 171.733 C 172.570 171.733,172.887 171.493,173.138 171.200 C 173.389 170.907,173.495 170.667,173.372 170.667 C 173.250 170.667,172.932 170.907,172.667 171.200 M230.387 171.247 C 230.684 171.567,231.019 171.737,231.130 171.625 C 231.241 171.514,231.100 171.253,230.815 171.045 C 230.032 170.472,229.777 170.592,230.387 171.247 M109.600 171.933 C 109.820 172.005,110.237 172.230,110.526 172.432 C 111.225 172.921,111.684 172.903,111.187 172.406 C 110.970 172.189,110.434 171.965,109.996 171.907 C 109.558 171.849,109.380 171.861,109.600 171.933 M125.333 172.174 C 124.806 172.411,124.549 172.650,124.742 172.722 C 124.931 172.793,125.271 172.696,125.499 172.507 C 125.726 172.318,126.412 172.081,127.023 171.982 C 128.117 171.803,128.120 171.800,127.200 171.777 C 126.687 171.765,125.847 171.943,125.333 172.174 M156.439 171.975 C 156.754 172.115,157.091 172.358,157.188 172.515 C 157.285 172.672,157.563 172.800,157.806 172.800 C 158.531 172.800,157.623 172.066,156.667 171.878 C 156.007 171.749,155.967 171.766,156.439 171.975 M170.363 172.258 C 169.835 172.698,169.809 172.784,170.200 172.791 C 170.457 172.796,170.667 172.690,170.667 172.556 C 170.667 172.421,170.997 172.191,171.400 172.043 C 172.028 171.814,172.051 171.772,171.563 171.754 C 171.249 171.743,170.709 171.969,170.363 172.258 M197.935 172.263 C 198.306 172.555,199.252 172.928,200.038 173.092 C 200.824 173.256,201.581 173.497,201.720 173.628 C 202.158 174.040,202.782 173.927,202.428 173.500 C 202.261 173.299,201.506 173.052,200.752 172.952 C 199.997 172.852,199.083 172.537,198.720 172.252 C 198.358 171.967,197.881 171.733,197.661 171.733 C 197.398 171.733,197.491 171.914,197.935 172.263 M210.400 171.927 C 210.180 172.010,209.913 172.225,209.806 172.404 C 209.700 172.583,208.779 172.812,207.761 172.912 C 206.666 173.020,205.778 173.253,205.588 173.481 C 205.407 173.700,204.735 173.887,204.034 173.913 L 202.800 173.960 203.918 174.061 C 204.597 174.123,205.354 173.998,205.843 173.745 C 206.287 173.516,207.357 173.232,208.220 173.113 C 209.166 172.984,210.085 172.667,210.531 172.316 C 211.253 171.748,211.210 171.620,210.400 171.927 M232.084 171.981 C 232.496 172.118,233.009 172.375,233.223 172.553 C 233.683 172.934,233.926 172.793,233.631 172.316 C 233.517 172.132,232.953 171.925,232.378 171.857 C 231.453 171.747,231.419 171.761,232.084 171.981 M249.400 172.008 C 249.070 172.141,248.800 172.373,248.800 172.525 C 248.800 172.889,249.152 172.874,249.533 172.494 C 249.702 172.325,250.296 172.099,250.853 171.991 L 251.867 171.795 250.933 171.781 C 250.420 171.773,249.730 171.876,249.400 172.008 M114.133 173.072 C 115.527 173.160,118.347 173.157,120.400 173.066 C 123.613 172.923,123.260 172.901,117.867 172.907 C 113.801 172.911,112.490 172.969,114.133 173.072 M158.689 172.898 C 158.750 172.952,160.300 173.059,162.133 173.136 C 164.315 173.227,164.914 173.203,163.867 173.066 C 162.194 172.848,158.497 172.728,158.689 172.898 M166.607 172.996 C 167.234 173.052,168.194 173.051,168.740 172.994 C 169.287 172.937,168.773 172.890,167.600 172.891 C 166.427 172.892,165.980 172.939,166.607 172.996 M234.422 172.900 C 234.483 172.955,236.333 173.061,238.533 173.136 C 241.111 173.224,241.822 173.201,240.533 173.071 C 238.369 172.853,234.242 172.737,234.422 172.900 M244.067 172.997 C 244.910 173.050,246.290 173.050,247.133 172.997 C 247.977 172.944,247.287 172.901,245.600 172.901 C 243.913 172.901,243.223 172.944,244.067 172.997 " stroke="none" fill="#d3306a" fill-rule="evenodd"></path><path id="path2" d="M58.133 122.674 C 50.629 123.554,44.098 127.089,38.732 133.174 C 37.484 134.590,34.667 138.898,34.667 139.391 C 34.667 139.487,34.436 140.053,34.155 140.649 C 30.820 147.709,31.130 157.822,34.910 165.318 C 36.011 167.503,38.397 171.025,38.623 170.799 C 38.694 170.728,38.571 170.459,38.349 170.202 C 37.930 169.714,36.874 166.470,36.152 163.450 C 35.442 160.483,35.686 157.100,36.729 155.454 L 37.270 154.600 37.602 155.633 C 40.880 165.838,49.122 172.599,59.467 173.571 C 63.250 173.926,63.227 173.958,62.243 169.600 C 60.142 160.300,70.413 148.302,79.600 149.324 C 86.047 150.041,88.529 152.321,89.172 158.116 C 89.518 161.235,89.631 161.261,90.299 158.380 C 94.768 139.092,77.891 120.358,58.133 122.674 " stroke="none" fill="#fc9e07" fill-rule="evenodd"></path><path id="path3" d="M135.743 121.316 C 135.359 122.032,135.359 173.434,135.743 174.151 C 136.032 174.692,140.490 174.940,141.250 174.457 C 142.090 173.923,142.133 172.616,142.133 147.733 C 142.133 122.851,142.090 121.544,141.250 121.010 C 140.490 120.527,136.032 120.774,135.743 121.316 M186.841 121.288 C 186.232 121.961,186.155 173.429,186.762 174.259 C 187.048 174.652,187.496 174.758,188.927 174.777 C 191.117 174.805,191.648 174.305,191.973 171.904 C 192.274 169.687,192.466 169.649,194.308 171.440 C 202.755 179.654,215.594 175.535,217.911 163.867 C 218.057 163.133,218.346 161.845,218.555 161.004 C 218.998 159.212,219.073 150.660,218.660 148.871 C 218.517 148.250,218.281 146.908,218.136 145.887 C 217.728 143.007,216.036 139.408,214.328 137.787 C 210.049 133.725,200.847 133.721,195.495 137.778 C 193.340 139.412,193.340 139.414,193.336 129.267 C 193.333 120.264,193.558 120.800,189.775 120.800 C 187.699 120.800,187.209 120.881,186.841 121.288 M58.333 122.588 C 58.663 122.652,59.203 122.652,59.533 122.588 C 59.863 122.525,59.593 122.473,58.933 122.473 C 58.273 122.473,58.003 122.525,58.333 122.588 M63.400 122.588 C 63.730 122.652,64.270 122.652,64.600 122.588 C 64.930 122.525,64.660 122.473,64.000 122.473 C 63.340 122.473,63.070 122.525,63.400 122.588 M140.661 123.800 C 140.749 124.423,140.787 135.733,140.744 148.933 L 140.667 172.933 138.800 172.933 L 136.933 172.933 136.856 148.933 C 136.813 135.733,136.851 124.423,136.939 123.800 L 137.099 122.667 138.800 122.667 L 140.501 122.667 140.661 123.800 M191.842 131.533 C 191.923 136.410,191.980 140.820,191.968 141.333 C 191.749 151.100,191.906 160.256,192.301 160.706 C 192.541 160.978,192.819 161.890,192.921 162.733 C 193.022 163.577,193.248 164.417,193.422 164.600 C 193.597 164.783,193.899 165.293,194.094 165.733 C 194.459 166.557,194.560 166.684,196.116 168.267 C 197.554 169.729,198.429 170.282,199.867 170.637 C 200.600 170.819,201.657 171.101,202.216 171.265 C 204.270 171.867,207.823 170.797,209.625 169.034 C 212.409 166.311,213.125 163.696,213.257 155.776 C 213.366 149.280,212.971 146.076,211.849 144.343 C 211.639 144.018,211.467 143.575,211.467 143.358 C 211.467 142.851,209.189 140.533,208.690 140.533 C 208.482 140.533,208.264 140.392,208.206 140.219 C 208.039 139.716,204.714 139.471,200.467 139.648 C 196.378 139.819,196.139 139.765,197.133 138.893 C 199.693 136.651,207.788 136.171,211.528 138.040 C 213.022 138.787,215.200 140.878,215.200 141.566 C 215.200 141.832,215.425 142.255,215.701 142.504 C 216.014 142.788,216.249 143.451,216.328 144.281 C 216.398 145.009,216.653 145.824,216.894 146.090 C 217.628 146.901,217.547 161.335,216.800 162.800 C 216.507 163.375,216.267 164.282,216.267 164.815 C 216.267 165.445,216.080 165.953,215.733 166.267 C 215.440 166.532,215.200 166.971,215.200 167.241 C 215.200 167.512,214.960 167.973,214.667 168.267 C 214.373 168.560,214.133 168.913,214.133 169.051 C 214.133 169.369,211.816 171.733,211.504 171.733 C 211.376 171.733,210.939 171.996,210.531 172.316 C 210.085 172.667,209.166 172.984,208.220 173.113 C 207.357 173.232,206.272 173.524,205.809 173.763 C 204.918 174.224,202.409 174.153,201.782 173.649 C 201.608 173.509,200.815 173.258,200.018 173.090 C 198.208 172.709,195.535 170.640,194.133 168.535 C 191.976 165.297,190.856 165.825,190.707 170.152 L 190.607 173.093 189.370 173.013 L 188.133 172.933 188.060 148.400 C 187.975 119.954,187.772 122.667,189.986 122.667 L 191.695 122.667 191.842 131.533 M340.239 124.030 C 339.014 124.480,338.933 125.066,338.933 133.562 C 338.933 140.127,338.866 141.587,338.542 142.016 C 338.326 142.300,338.146 142.396,338.142 142.228 C 338.137 142.061,337.358 141.090,336.411 140.071 C 329.084 132.192,317.443 131.258,308.741 137.850 C 306.997 139.171,305.067 141.142,305.067 141.601 C 305.067 141.747,304.900 141.867,304.695 141.867 C 304.491 141.867,304.225 142.077,304.103 142.333 C 303.970 142.615,303.827 141.230,303.741 138.843 C 303.549 133.466,304.183 133.867,295.870 133.867 C 290.178 133.867,289.355 133.920,289.033 134.307 C 288.739 134.661,288.651 136.840,288.586 145.307 L 288.506 155.867 287.834 157.242 C 286.130 160.729,281.651 160.385,280.157 156.652 L 279.467 154.928 279.467 144.990 C 279.467 132.425,280.393 133.866,272.318 133.870 C 265.267 133.874,264.988 133.909,264.566 134.835 C 264.164 135.717,264.161 157.290,264.563 158.800 C 264.719 159.387,265.018 160.625,265.229 161.551 C 265.439 162.478,265.776 163.498,265.978 163.818 C 266.179 164.138,266.431 164.689,266.537 165.043 C 266.741 165.723,268.218 167.931,269.335 169.226 C 271.049 171.212,273.223 172.662,276.800 174.204 C 278.660 175.006,283.824 175.577,286.090 175.232 C 289.667 174.686,290.861 174.448,291.370 174.179 C 291.643 174.035,292.704 173.516,293.727 173.025 C 295.828 172.018,299.272 168.864,300.235 167.067 C 300.549 166.480,300.924 165.820,301.070 165.600 C 301.215 165.380,301.451 164.870,301.594 164.467 C 301.949 163.463,302.723 163.524,303.295 164.600 C 304.201 166.306,304.476 166.705,305.741 168.156 C 314.708 178.435,331.063 177.425,338.499 166.133 C 340.284 163.423,340.188 163.425,341.483 166.067 C 344.052 171.303,348.908 174.208,356.311 174.936 C 362.572 175.551,362.505 175.622,362.620 168.307 C 362.752 160.016,362.671 159.775,359.571 159.201 C 357.254 158.773,356.482 158.380,355.547 157.155 L 354.800 156.176 354.667 140.821 C 354.527 124.730,354.519 124.635,353.345 124.006 C 352.696 123.659,341.193 123.680,340.239 124.030 M73.067 124.933 C 73.433 125.143,73.853 125.314,74.000 125.314 C 74.147 125.314,73.967 125.143,73.600 124.933 C 73.233 124.724,72.813 124.552,72.667 124.552 C 72.520 124.552,72.700 124.724,73.067 124.933 M353.101 125.241 C 353.397 125.598,353.492 128.484,353.602 140.507 C 353.726 154.060,353.780 155.442,354.228 156.601 C 355.027 158.670,357.357 160.267,359.576 160.267 C 361.403 160.267,361.600 160.948,361.600 167.262 C 361.600 174.028,361.566 174.134,359.385 174.133 C 350.822 174.128,344.785 170.923,341.817 164.805 C 341.210 163.556,340.688 162.497,340.655 162.454 C 340.390 162.096,339.189 162.847,338.956 163.517 C 338.138 165.863,334.611 169.622,331.509 171.454 C 322.009 177.064,309.271 173.701,304.035 164.200 C 302.854 162.057,301.814 161.418,301.433 162.600 C 296.714 177.208,273.714 178.366,267.136 164.327 C 265.351 160.519,265.070 158.052,265.068 146.191 C 265.067 137.485,265.120 136.166,265.497 135.591 L 265.928 134.933 272.171 134.933 L 278.413 134.933 278.673 135.617 C 278.826 136.018,278.933 140.479,278.933 146.387 L 278.933 156.472 279.674 157.891 C 281.453 161.296,285.937 161.590,288.128 158.444 L 288.933 157.289 289.067 146.552 C 289.173 137.994,289.274 135.725,289.566 135.374 C 290.145 134.677,301.584 134.713,302.218 135.413 C 302.572 135.804,302.666 136.651,302.726 139.983 C 302.820 145.178,303.149 145.553,305.181 142.785 C 311.191 134.600,322.714 132.178,331.467 137.260 C 333.109 138.214,335.786 140.666,337.887 143.142 C 339.893 145.505,339.993 145.073,339.997 134.067 C 340.000 126.224,340.023 125.843,340.533 125.333 C 341.282 124.585,352.487 124.502,353.101 125.241 M45.140 127.173 C 44.255 127.745,43.456 128.335,43.364 128.484 C 43.229 128.701,46.502 126.631,46.911 126.240 C 47.296 125.872,46.525 126.278,45.140 127.173 M41.600 130.000 C 40.952 130.660,40.482 131.200,40.556 131.200 C 40.629 131.200,41.219 130.660,41.867 130.000 C 42.514 129.340,42.984 128.800,42.911 128.800 C 42.838 128.800,42.248 129.340,41.600 130.000 M82.133 131.067 C 83.078 132.020,83.911 132.800,83.985 132.800 C 84.058 132.800,83.345 132.020,82.400 131.067 C 81.455 130.113,80.622 129.333,80.549 129.333 C 80.475 129.333,81.188 130.113,82.133 131.067 M38.919 132.733 L 38.000 133.733 39.000 132.814 C 39.931 131.959,40.123 131.733,39.919 131.733 C 39.874 131.733,39.424 132.183,38.919 132.733 M233.456 135.295 C 228.290 136.713,224.754 140.390,223.419 145.733 C 223.272 146.320,222.965 147.520,222.737 148.400 C 222.221 150.393,221.984 157.449,222.366 159.467 C 223.224 163.993,223.546 165.111,224.585 167.169 C 228.010 173.948,235.831 176.629,246.933 174.828 C 254.317 173.631,255.533 172.648,254.062 169.067 C 253.016 166.521,253.031 166.525,248.677 167.832 C 244.352 169.129,238.301 169.196,235.067 167.982 C 233.526 167.404,230.400 164.723,230.400 163.980 C 230.400 163.830,230.158 163.206,229.862 162.594 C 229.164 161.149,228.877 158.817,229.330 158.271 C 229.621 157.920,231.318 157.867,242.136 157.867 C 257.391 157.867,255.900 158.366,255.788 153.295 C 255.744 151.343,255.587 149.263,255.438 148.673 C 255.290 148.083,255.015 146.856,254.828 145.948 C 254.642 145.039,254.364 144.139,254.210 143.948 C 254.057 143.756,253.844 143.300,253.736 142.933 C 251.877 136.613,242.086 132.926,233.456 135.295 M111.600 135.561 C 105.787 137.164,102.013 141.356,100.943 147.399 C 100.741 148.536,100.447 149.804,100.288 150.217 C 100.127 150.636,100.000 152.755,100.000 155.015 C 100.000 170.648,107.622 177.225,122.933 174.802 C 129.958 173.690,131.118 172.935,130.454 169.907 C 129.845 167.130,128.957 166.392,127.153 167.159 C 125.414 167.899,122.560 168.522,119.733 168.777 C 111.221 169.548,107.613 165.879,107.041 155.867 C 106.440 145.365,112.942 138.551,120.334 141.935 C 122.348 142.858,123.770 144.379,124.357 146.242 C 125.174 148.834,125.631 149.159,128.125 148.926 C 131.629 148.597,132.218 147.300,130.601 143.467 C 127.608 136.372,120.057 133.230,111.600 135.561 M149.333 136.000 C 148.419 136.914,148.518 160.758,149.453 164.629 C 151.308 172.317,155.335 175.267,164.000 175.287 C 171.756 175.304,175.654 172.824,178.511 166.052 C 179.352 164.058,179.600 159.967,179.600 148.095 C 179.600 134.377,179.890 135.467,176.240 135.467 C 172.839 135.467,173.067 134.717,173.067 145.921 C 173.067 165.344,171.803 168.604,164.267 168.628 C 160.102 168.641,158.026 167.425,156.601 164.133 L 155.908 162.533 155.754 149.509 L 155.600 136.486 154.970 135.976 C 154.032 135.217,150.100 135.234,149.333 136.000 M244.144 137.020 C 246.223 137.427,248.742 138.836,250.115 140.359 C 250.492 140.777,251.010 141.314,251.267 141.552 C 251.523 141.790,251.733 142.122,251.733 142.290 C 251.733 142.458,251.958 142.881,252.232 143.231 C 252.506 143.580,252.819 144.287,252.928 144.800 C 253.037 145.313,253.321 145.955,253.560 146.225 C 253.918 146.630,254.012 147.557,254.094 151.492 L 254.193 156.267 241.422 156.267 C 226.527 156.267,227.467 156.097,227.467 158.786 C 227.467 159.899,227.646 160.871,227.994 161.638 C 228.284 162.277,228.524 163.070,228.527 163.400 C 228.531 163.730,228.756 164.223,229.028 164.495 C 229.300 164.767,229.597 165.283,229.687 165.643 C 230.817 170.145,240.661 172.320,248.667 169.835 C 249.547 169.561,250.821 169.263,251.498 169.171 L 252.729 169.004 252.903 169.933 C 253.164 171.326,252.910 171.684,251.510 171.894 C 250.826 171.996,249.847 172.289,249.333 172.545 C 247.462 173.478,234.548 173.417,233.054 172.468 C 232.694 172.239,232.002 171.969,231.515 171.868 C 231.029 171.766,230.568 171.519,230.491 171.318 C 230.414 171.118,230.098 170.873,229.789 170.775 C 229.124 170.564,226.933 168.282,226.933 167.801 C 226.933 167.617,226.810 167.467,226.660 167.467 C 226.510 167.467,226.273 167.166,226.133 166.799 C 225.993 166.432,225.650 165.622,225.369 164.999 C 225.088 164.376,224.773 163.207,224.668 162.400 C 224.564 161.593,224.311 160.278,224.106 159.477 C 222.924 154.855,224.542 144.974,227.013 141.733 C 229.147 138.934,230.122 138.368,235.467 136.830 C 236.558 136.516,242.198 136.639,244.144 137.020 M122.835 137.835 C 123.880 138.248,124.937 138.754,125.184 138.959 C 126.623 140.160,128.533 142.201,128.533 142.539 C 128.533 142.756,128.768 143.168,129.054 143.454 C 129.709 144.109,129.878 146.247,129.317 146.774 C 128.085 147.928,126.290 147.373,125.984 145.742 C 125.890 145.243,125.586 144.628,125.307 144.376 C 125.028 144.124,124.800 143.780,124.800 143.611 C 124.800 143.134,122.715 141.146,121.418 140.386 C 119.627 139.336,114.099 139.362,112.041 140.429 C 109.990 141.493,108.649 142.974,107.599 145.333 C 107.370 145.847,107.009 146.581,106.797 146.966 C 106.584 147.351,106.328 148.544,106.228 149.619 C 106.129 150.693,105.887 151.878,105.692 152.253 C 105.227 153.144,105.236 155.037,105.711 156.093 C 105.921 156.558,106.141 158.124,106.204 159.600 C 106.293 161.668,106.448 162.505,106.893 163.329 C 107.208 163.914,107.467 164.605,107.467 164.865 C 107.467 165.126,107.707 165.544,108.000 165.795 C 108.293 166.046,108.533 166.450,108.533 166.692 C 108.533 167.162,110.730 169.333,111.205 169.333 C 111.361 169.333,111.813 169.569,112.211 169.857 C 113.981 171.139,121.574 171.153,125.200 169.882 C 127.366 169.122,128.364 168.805,128.383 168.871 C 128.393 168.905,128.675 169.324,129.010 169.801 C 129.859 171.014,129.486 171.648,127.799 171.859 C 127.103 171.946,126.173 172.209,125.733 172.444 C 124.018 173.360,112.031 173.400,110.632 172.494 C 110.285 172.269,109.658 172.000,109.240 171.897 C 107.926 171.573,104.800 168.914,104.800 168.120 C 104.800 167.953,104.560 167.599,104.267 167.333 C 103.973 167.068,103.733 166.727,103.733 166.576 C 103.733 166.425,103.499 165.814,103.214 165.218 C 100.533 159.624,101.499 146.778,104.962 141.968 C 108.143 137.550,116.950 135.513,122.835 137.835 M153.971 137.755 C 154.060 137.987,154.136 143.237,154.139 149.422 C 154.145 160.048,154.174 160.731,154.673 161.829 C 154.963 162.468,155.200 163.520,155.200 164.165 C 155.200 165.009,155.350 165.467,155.733 165.795 C 156.027 166.046,156.267 166.461,156.267 166.717 C 156.267 170.035,165.850 172.014,169.791 169.510 C 173.594 167.094,174.436 163.478,174.580 148.933 C 174.705 136.204,174.502 137.333,176.672 137.333 L 178.400 137.333 178.400 149.343 C 178.400 159.876,178.348 161.432,177.976 162.000 C 177.742 162.356,177.484 163.390,177.402 164.298 C 177.302 165.393,177.086 166.114,176.759 166.441 C 176.488 166.712,176.267 167.155,176.267 167.425 C 176.267 167.696,176.027 168.135,175.733 168.400 C 175.440 168.665,175.200 168.983,175.200 169.106 C 175.200 169.228,174.810 169.686,174.333 170.123 C 173.857 170.560,173.287 171.085,173.067 171.289 C 172.847 171.494,172.224 171.804,171.684 171.979 C 171.143 172.154,170.659 172.423,170.608 172.577 C 170.321 173.436,158.072 173.308,157.104 172.436 C 156.864 172.219,156.351 171.963,155.965 171.867 C 153.979 171.371,151.992 168.182,150.897 163.733 C 150.179 160.814,149.753 139.075,150.392 137.882 C 150.777 137.163,153.704 137.059,153.971 137.755 M235.204 139.215 C 234.693 139.500,234.088 139.733,233.858 139.733 C 233.044 139.733,229.600 142.879,229.600 143.623 C 229.600 143.830,229.360 144.240,229.067 144.533 C 228.773 144.827,228.533 145.397,228.532 145.800 C 228.531 146.203,228.291 146.893,228.000 147.333 C 227.311 148.373,227.234 152.082,227.882 153.007 L 228.297 153.600 238.517 153.600 L 248.737 153.600 249.435 152.684 C 250.613 151.140,250.135 145.822,248.655 144.000 C 248.476 143.780,248.253 143.347,248.159 143.038 C 247.156 139.738,238.727 137.251,235.204 139.215 M242.933 141.092 C 244.849 141.662,245.679 142.276,246.670 143.858 C 247.900 145.821,248.990 149.607,248.681 150.839 L 248.523 151.467 238.933 151.467 L 229.343 151.467 229.173 150.786 C 228.772 149.191,229.664 146.152,231.138 144.085 C 233.437 140.863,238.143 139.669,242.933 141.092 M207.914 142.055 C 212.855 145.091,213.409 162.805,208.710 167.490 C 205.737 170.453,199.618 169.744,196.375 166.059 C 195.341 164.885,195.189 164.630,194.277 162.535 C 193.132 159.905,192.892 144.266,193.974 142.751 C 193.993 142.725,194.962 142.447,196.129 142.135 C 201.144 140.791,205.805 140.759,207.914 142.055 M318.726 148.580 C 314.832 150.468,313.954 155.688,317.028 158.672 C 322.221 163.710,329.959 157.673,326.649 151.167 C 325.247 148.412,321.557 147.207,318.726 148.580 M323.303 149.322 C 325.635 150.209,327.037 153.031,326.447 155.655 C 325.560 159.606,319.837 160.793,317.246 157.564 C 316.849 157.070,316.407 156.522,316.263 156.345 C 316.118 156.167,316.000 155.295,316.000 154.406 C 316.000 150.734,319.891 148.025,323.303 149.322 M91.033 152.133 C 91.034 153.747,91.078 154.372,91.131 153.524 C 91.184 152.675,91.183 151.355,91.130 150.590 C 91.076 149.826,91.032 150.520,91.033 152.133 M90.567 156.833 C 90.344 157.945,90.560 158.160,90.800 157.067 C 90.901 156.606,90.928 156.173,90.861 156.105 C 90.793 156.037,90.660 156.365,90.567 156.833 M90.133 158.757 C 90.133 159.915,88.597 164.507,87.601 166.326 C 77.034 185.615,50.201 187.326,37.495 169.520 C 36.794 168.538,36.156 167.733,36.077 167.733 C 35.999 167.733,36.048 167.883,36.186 168.067 C 36.324 168.250,36.891 169.098,37.445 169.952 C 47.039 184.720,69.671 186.531,82.634 173.568 C 85.579 170.623,89.333 164.770,89.333 163.124 C 89.333 162.858,89.501 162.316,89.706 161.920 C 90.102 161.154,90.574 158.133,90.297 158.133 C 90.207 158.133,90.133 158.414,90.133 158.757 M35.200 166.400 C 35.499 166.987,35.804 167.467,35.878 167.467 C 35.951 167.467,35.766 166.987,35.467 166.400 C 35.167 165.813,34.862 165.333,34.789 165.333 C 34.716 165.333,34.901 165.813,35.200 166.400 " stroke="none" fill="#a28ab3" fill-rule="evenodd"></path></g></svg>