<?xml version="1.0" encoding="utf-8"?>
<!DOCTYPE svg PUBLIC "-//W3C//DTD SVG 1.0//EN" "http://www.w3.org/TR/2001/REC-SVG-20010904/DTD/svg10.dtd">
<svg version="1.0" xmlns="http://www.w3.org/2000/svg" width="89px" height="38px" viewBox="0 0 89 38" preserveAspectRatio="xMidYMid meet">
 <g fill="#ffffff">
  <path d="M43.50 28.55 c-1.65 -0.40 -3.05 -1.50 -4.15 -3.15 -0.65 -1 -0.90 -2.75 -1 -6.90 l-0.20 -5.50 2.90 0 2.95 0 0 4.20 c0 5.15 0.20 5.80 2 5.80 1.70 0 2 -0.85 2 -6.15 l0 -3.90 2.90 0.15 2.85 0.15 -0.05 1.90 c0 1 0.10 1.85 0.20 1.85 0.10 0 0.65 -0.55 1.20 -1.25 3.10 -3.95 10.35 -3.55 12.65 0.65 0.65 1.25 0.70 1.05 0.75 -3.05 l0 -4.40 2.90 0.15 2.85 0.15 0 6 c0 3.30 0.20 6.30 0.40 6.65 0.25 0.35 1 0.85 1.65 1.10 1.05 0.45 1.20 0.80 1.20 3.30 l0 2.85 -2.50 -0.25 c-2.65 -0.25 -5.15 -2 -5.80 -4.05 -0.25 -0.85 -0.45 -0.75 -1.80 0.85 -0.80 1 -2.15 2.15 -2.90 2.55 -1.70 0.90 -5.10 1 -6.65 0.20 -1.80 -0.95 -3.85 -3.10 -3.85 -4.05 0 -0.50 -0.20 -0.90 -0.50 -0.90 -0.25 0 -0.50 0.40 -0.50 0.90 0 0.95 -2.05 3.10 -3.85 4.05 -1.15 0.60 -3.60 0.65 -5.65 0.10z m19.50 -6.60 c0.45 -0.80 0.40 -1.30 -0.25 -2.25 -0.85 -1.35 -1.35 -1.45 -2.80 -0.70 -0.95 0.55 -1.20 1.75 -0.65 3.20 0.45 1.20 3.05 1.05 3.70 -0.25z"/>
 </g>
 <g fill="#ff8000">
  <path d="M20 30.05 c-0.95 -0.20 -3.10 -1 -4.75 -1.85 -2.60 -1.25 -3.10 -1.75 -3.85 -3.70 -3.95 -10.35 6.70 -20.05 16.55 -15.05 2.50 1.30 5.20 4.50 5.95 7 1.05 3.50 0.50 8.15 -1.05 8.45 -0.65 0.15 -0.85 -0.20 -0.85 -1.35 0 -1.45 -1.10 -3.05 -2.05 -3.05 -1.20 0 -3.45 1.60 -4.35 3.10 -0.80 1.30 -0.95 2.20 -0.75 4.30 l0.30 2.60 -1.70 -0.05 c-0.95 -0.05 -2.50 -0.20 -3.45 -0.40z m7.35 -17.30 c-2.90 -2.55 -6.35 -2.75 -9.10 -0.50 l-1.40 1.10 3.95 -0.20 c3.10 -0.15 4.35 0 5.95 0.75 2.70 1.30 2.90 0.85 0.60 -1.15z"/>
 </g>
 <g fill="#ff0024">
  <path d="M17.40 30.95 c-1.05 -0.55 -2.60 -1.70 -3.50 -2.65 -1.35 -1.45 -1.60 -2.05 -1.80 -5.05 -0.10 -2.20 0 -3.25 0.30 -3.05 0.30 0.15 0.65 0.95 0.85 1.70 0.35 1.70 3.25 4.95 5.10 5.65 0.75 0.35 2.25 0.75 3.30 0.95 1.65 0.35 1.85 0.25 1.55 -0.45 -0.20 -0.45 -0.45 -1.40 -0.55 -2.15 -0.35 -1.90 2.35 -5.65 4.65 -6.50 1.30 -0.45 1.70 -0.85 1.55 -1.50 -0.25 -0.95 0.50 -1.15 2.55 -0.60 0.70 0.20 1.10 0.65 1 1.15 -0.10 0.45 0.20 1.25 0.70 1.75 2.55 2.80 -1.30 9.40 -6.55 11.20 -2.65 0.90 -7 0.70 -9.15 -0.45z"/>
 </g>
 <g fill="#ffce00">
  <path d="M12.75 17.40 c0.60 -2.75 1.80 -4.90 3.55 -6.30 2.10 -1.65 5.85 -2.55 8.10 -1.95 0.95 0.25 1.80 0.30 1.95 0.15 0.15 -0.15 1.35 0.85 2.70 2.20 2.15 2.20 3.45 4.80 3.45 6.95 0 0.95 -3.05 0.30 -3.65 -0.75 -0.55 -1 -5.20 -3.20 -6.75 -3.20 -2.65 0 -5.70 1.15 -7.25 2.80 -1.95 2.15 -2.50 2.15 -2.10 0.10z"/>
 </g>
</svg>