<svg id="svg" version="1.1" xmlns="http://www.w3.org/2000/svg" xmlns:xlink="http://www.w3.org/1999/xlink" width="400" height="264.44444444444446" viewBox="0, 0, 400,264.44444444444446"><g id="svgg"><path id="path0" d="M186.758 120.252 L 185.847 121.192 185.714 129.153 L 185.582 137.113 184.921 137.582 C 183.678 138.464,183.215 138.445,182.518 137.483 C 181.310 135.815,176.941 132.081,175.806 131.747 C 175.217 131.573,173.956 131.091,173.003 130.676 C 166.184 127.706,156.913 129.847,151.070 135.740 C 147.391 139.451,146.032 139.050,146.032 134.255 C 146.032 130.244,145.341 129.835,138.767 129.946 L 134.015 130.026 133.410 130.925 C 132.805 131.824,132.804 131.832,132.804 142.060 L 132.804 152.295 131.729 153.796 C 128.732 157.982,123.860 157.558,121.473 152.903 L 120.370 150.752 120.370 141.521 C 120.370 132.550,120.354 132.255,119.789 131.092 L 119.207 129.894 114.330 129.894 C 108.860 129.894,108.011 130.128,107.431 131.793 C 106.946 133.185,107.048 151.289,107.557 154.005 C 109.194 162.745,113.267 167.984,119.296 169.106 C 120.105 169.256,121.481 169.692,122.354 170.073 C 124.672 171.087,128.682 171.082,131.354 170.062 C 132.370 169.674,133.992 169.158,134.958 168.916 C 137.775 168.209,141.587 165.097,142.960 162.382 C 143.863 160.598,145.134 158.995,145.645 158.995 C 146.675 158.995,147.912 159.956,148.850 161.486 C 149.964 163.303,151.714 165.063,154.218 166.883 C 156.565 168.589,156.454 168.535,158.983 169.201 C 160.226 169.529,161.898 170.042,162.698 170.340 C 164.903 171.162,167.299 171.088,169.706 170.124 C 170.771 169.697,172.306 169.226,173.116 169.076 C 175.965 168.549,178.639 166.486,182.890 161.533 C 185.329 158.691,186.639 158.835,188.256 162.120 C 190.270 166.210,193.741 168.500,199.206 169.344 C 205.515 170.319,205.579 170.318,206.558 169.202 L 207.407 168.236 207.407 163.390 C 207.407 157.472,207.271 157.132,204.511 156.182 C 203.288 155.761,202.565 155.314,201.927 154.584 C 199.082 151.328,198.954 150.457,198.947 134.295 L 198.942 121.103 197.964 120.208 L 196.987 119.312 192.328 119.312 L 187.670 119.312 186.758 120.252 M167.329 143.266 C 175.185 146.982,174.224 156.549,166.003 156.458 C 162.627 156.421,161.448 155.577,159.417 151.749 L 158.480 149.982 159.045 148.472 C 159.738 146.618,161.905 144.377,164.021 143.324 C 165.792 142.443,165.596 142.446,167.329 143.266 " stroke="none" fill="#0a0a0a" fill-rule="evenodd"></path><path id="path1" d="M62.169 116.582 C 61.951 116.658,61.058 116.990,60.185 117.321 C 59.312 117.652,57.646 118.070,56.481 118.250 C 55.286 118.435,54.054 118.799,53.651 119.086 C 53.258 119.365,52.246 119.909,51.402 120.294 C 44.277 123.544,37.898 131.339,36.232 138.832 C 35.950 140.100,35.480 141.892,35.188 142.815 C 33.979 146.626,35.227 156.238,37.429 160.089 C 37.793 160.724,38.228 161.660,38.398 162.169 C 38.567 162.679,39.134 163.640,39.657 164.306 C 43.511 169.209,44.209 169.961,42.279 167.130 C 41.659 166.220,40.820 164.780,40.416 163.930 C 40.012 163.079,39.457 162.098,39.183 161.750 C 38.119 160.398,37.668 150.821,38.624 149.900 C 39.482 149.075,41.083 149.710,41.544 151.060 C 42.174 152.903,44.849 157.926,45.959 159.350 C 47.324 161.100,50.205 164.021,50.567 164.021 C 50.730 164.021,51.417 164.419,52.095 164.906 C 52.772 165.393,54.632 166.429,56.227 167.208 L 59.127 168.625 62.092 168.638 C 65.864 168.654,66.217 168.429,65.465 166.483 C 64.100 162.956,65.705 156.635,69.011 152.516 C 74.246 145.995,78.110 143.712,82.672 144.447 C 83.690 144.611,85.379 144.842,86.425 144.960 C 90.070 145.374,93.853 147.349,94.503 149.179 C 95.007 150.600,94.906 156.428,94.351 157.904 C 94.111 158.540,93.921 159.255,93.927 159.491 C 93.933 159.727,94.121 159.444,94.344 158.862 C 96.328 153.684,96.155 154.778,96.160 147.354 L 96.164 140.608 94.793 137.084 C 93.307 133.261,91.685 130.321,90.217 128.791 C 85.631 124.010,83.579 122.167,81.381 120.855 C 79.563 119.769,76.152 118.441,74.074 118.010 C 72.692 117.723,70.858 117.244,69.998 116.945 C 68.485 116.419,63.326 116.180,62.169 116.582 M235.651 129.295 C 232.535 129.541,230.041 132.331,229.610 136.052 C 229.292 138.793,229.313 162.937,229.635 165.615 C 230.096 169.448,233.724 171.300,237.932 169.852 C 241.319 168.687,242.019 167.474,242.594 161.776 C 243.130 156.468,243.695 155.905,248.734 155.655 C 251.297 155.528,252.292 155.363,253.439 154.875 C 254.239 154.535,255.430 154.119,256.085 153.952 C 259.210 153.154,262.546 149.781,263.221 146.735 C 263.377 146.031,263.681 145.034,263.895 144.520 C 264.657 142.697,263.761 137.947,262.036 134.664 C 260.736 132.192,256.078 129.726,252.012 129.360 C 249.464 129.130,238.302 129.086,235.651 129.295 M270.764 129.859 C 269.597 130.389,268.362 131.826,267.939 133.145 C 267.528 134.427,267.645 165.855,268.065 167.127 C 268.561 168.629,271.585 171.049,273.449 171.436 C 275.239 171.808,283.875 171.641,285.185 171.209 C 291.410 169.159,290.798 161.145,284.345 160.206 C 282.804 159.982,281.605 159.191,280.565 157.712 L 279.762 156.569 279.627 145.414 C 279.478 133.132,279.570 133.823,277.714 131.030 C 276.589 129.336,273.178 128.762,270.764 129.859 M310.979 129.740 C 309.553 130.262,307.683 132.383,306.318 135.028 C 305.710 136.206,304.998 137.477,304.736 137.852 C 304.474 138.228,304.012 139.164,303.709 139.933 C 303.406 140.701,302.800 141.851,302.362 142.488 C 301.924 143.124,301.402 144.093,301.202 144.640 C 301.002 145.187,299.925 147.540,298.808 149.868 C 297.692 152.196,296.528 154.696,296.222 155.423 C 295.916 156.151,295.143 157.758,294.505 158.995 L 293.345 161.243 294.339 160.053 C 298.096 155.553,298.915 155.159,304.497 155.159 C 309.160 155.159,310.202 155.473,312.032 157.429 L 313.267 158.749 312.553 159.996 C 312.161 160.682,311.051 162.077,310.087 163.095 L 308.333 164.947 310.194 163.159 C 311.918 161.503,313.092 160.847,314.331 160.847 C 314.576 160.847,316.244 162.307,318.037 164.092 C 326.211 172.229,327.468 172.712,331.656 169.323 C 335.503 166.210,335.264 164.250,329.655 152.871 C 327.334 148.164,325.180 143.657,324.868 142.857 C 324.556 142.057,323.960 140.866,323.543 140.212 C 323.126 139.557,322.540 138.485,322.240 137.831 C 320.864 134.826,318.117 130.866,316.818 130.015 C 315.882 129.401,312.358 129.236,310.979 129.740 M331.085 129.784 C 328.781 131.047,327.315 133.584,327.664 135.702 C 327.895 137.106,329.638 141.018,330.467 141.993 C 330.866 142.464,331.924 144.131,332.817 145.697 C 333.710 147.263,334.697 148.926,335.011 149.392 C 336.519 151.628,338.152 154.341,339.433 156.741 L 340.843 159.382 340.990 163.777 L 341.138 168.172 342.173 169.435 C 346.572 174.799,353.704 170.445,353.704 162.397 C 353.704 157.764,353.755 157.617,357.786 150.661 C 358.630 149.206,359.855 147.302,360.509 146.430 C 361.163 145.558,362.058 144.130,362.498 143.256 C 362.938 142.382,363.647 141.157,364.075 140.534 C 366.206 137.426,366.653 135.104,365.540 132.921 C 362.900 127.745,356.961 128.160,354.181 133.714 C 353.014 136.044,349.089 141.872,348.411 142.281 C 346.624 143.357,343.854 141.408,342.294 137.977 C 342.026 137.387,341.239 136.058,340.546 135.024 C 339.853 133.989,338.838 132.475,338.290 131.658 C 337.743 130.842,337.039 130.037,336.727 129.870 C 335.738 129.341,331.997 129.284,331.085 129.784 M292.493 163.105 C 292.402 163.342,292.345 164.032,292.365 164.638 C 292.400 165.675,292.413 165.655,292.588 164.286 C 292.785 162.735,292.759 162.412,292.493 163.105 M71.230 177.960 C 71.485 178.027,71.901 178.027,72.156 177.960 C 72.411 177.894,72.202 177.839,71.693 177.839 C 71.184 177.839,70.976 177.894,71.230 177.960 " stroke="none" fill="#fb9b1c" fill-rule="evenodd"></path><path id="path2" d="M78.836 144.427 C 76.538 144.891,72.364 148.337,68.953 152.588 C 65.706 156.634,64.112 162.986,65.465 166.483 C 66.217 168.429,65.864 168.654,62.092 168.638 L 59.127 168.625 56.227 167.208 C 54.632 166.429,52.772 165.393,52.095 164.906 C 51.417 164.419,50.730 164.021,50.567 164.021 C 50.205 164.021,47.324 161.100,45.959 159.350 C 44.849 157.926,42.174 152.903,41.544 151.060 C 41.083 149.710,39.482 149.075,38.624 149.900 C 37.668 150.821,38.119 160.398,39.183 161.750 C 39.457 162.098,40.011 163.079,40.415 163.930 C 42.314 167.934,48.153 173.801,51.663 175.232 C 53.545 175.999,57.640 177.328,59.259 177.697 C 61.992 178.319,72.099 178.059,74.074 177.315 C 74.874 177.014,76.503 176.419,77.694 175.994 C 78.884 175.569,80.134 175.021,80.472 174.776 C 80.809 174.532,81.559 174.006,82.138 173.608 C 86.148 170.850,87.803 169.358,89.608 166.871 C 93.496 161.515,93.467 161.566,94.055 159.127 C 95.403 153.538,95.182 149.040,93.489 147.587 C 92.467 146.711,88.345 145.178,86.425 144.961 C 85.379 144.842,83.750 144.619,82.804 144.465 C 80.910 144.155,80.217 144.149,78.836 144.427 M300.054 155.291 C 297.093 155.919,292.593 161.527,292.593 164.588 C 292.593 167.576,297.393 171.596,300.101 170.876 C 302.719 170.179,310.818 163.132,312.512 160.077 L 313.251 158.743 312.115 157.505 C 310.141 155.354,304.573 154.332,300.054 155.291 " stroke="none" fill="#fb2424" fill-rule="evenodd"></path></g></svg>