<svg id="svg" version="1.1" xmlns="http://www.w3.org/2000/svg" xmlns:xlink="http://www.w3.org/1999/xlink" width="400" height="267.3469387755102" viewBox="0, 0, 400,267.3469387755102"><g id="svgg"><path id="path0" d="M348.093 117.023 C 346.832 117.359,346.264 122.787,347.346 124.162 C 348.134 125.164,351.705 125.229,352.618 124.257 C 353.725 123.078,353.557 118.649,352.348 117.179 C 352.085 116.859,349.118 116.750,348.093 117.023 M363.602 117.554 C 363.297 117.922,363.223 122.937,363.164 147.322 L 363.092 176.648 363.778 176.960 C 364.687 177.374,368.247 177.368,368.663 176.952 C 369.007 176.608,369.155 119.641,368.817 117.948 L 368.650 117.112 366.309 117.112 C 364.459 117.112,363.892 117.205,363.602 117.554 M194.482 121.328 C 193.744 121.803,193.586 123.849,193.584 132.903 C 193.583 143.868,193.635 143.643,191.422 142.125 C 190.625 141.578,189.808 140.820,189.607 140.441 C 189.171 139.618,186.767 137.166,186.397 137.166 C 186.254 137.166,185.780 136.808,185.342 136.371 C 184.905 135.933,183.903 135.322,183.116 135.012 C 182.329 134.702,181.480 134.228,181.229 133.960 C 179.330 131.925,165.559 131.956,162.823 134.002 C 162.314 134.382,161.444 134.839,160.889 135.017 C 159.878 135.340,153.732 141.164,152.563 142.904 L 152.050 143.667 151.426 142.942 C 150.830 142.248,150.802 142.031,150.802 138.012 C 150.802 132.132,151.427 132.620,143.902 132.621 C 138.325 132.622,137.764 132.665,136.965 133.152 L 136.096 133.682 136.096 144.428 L 136.096 155.174 135.400 157.199 C 134.863 158.763,134.435 159.484,133.524 160.361 L 132.344 161.497 129.741 161.497 L 127.138 161.497 125.870 160.317 C 123.915 158.496,123.981 158.976,123.856 145.532 C 123.758 135.027,123.689 133.398,123.328 133.099 C 122.591 132.486,109.347 132.443,108.902 133.052 C 108.630 133.424,108.556 136.389,108.556 146.936 L 108.556 160.348 109.226 161.607 C 109.594 162.300,110.091 163.671,110.331 164.655 C 110.618 165.830,111.026 166.719,111.520 167.246 C 111.934 167.687,112.463 168.505,112.696 169.064 C 113.207 170.289,115.240 172.306,116.711 173.049 C 117.299 173.345,118.083 173.871,118.452 174.216 C 118.873 174.610,119.919 175.035,121.260 175.356 C 122.434 175.638,123.937 176.154,124.599 176.503 C 126.387 177.445,132.942 177.459,134.722 176.525 C 135.363 176.189,136.861 175.681,138.050 175.397 C 139.483 175.055,140.403 174.675,140.779 174.272 C 141.090 173.937,141.956 173.378,142.703 173.029 C 143.480 172.666,144.186 172.121,144.353 171.755 C 144.513 171.403,144.935 170.983,145.290 170.821 C 145.645 170.659,146.157 170.037,146.427 169.437 C 146.697 168.838,147.294 167.898,147.753 167.348 C 148.229 166.780,148.661 165.893,148.758 165.292 C 148.851 164.711,149.156 163.952,149.436 163.605 L 149.946 162.976 151.279 164.175 C 152.012 164.835,152.913 165.980,153.281 166.721 C 153.851 167.870,154.776 169.052,156.164 170.408 C 158.029 172.229,158.586 172.665,159.626 173.110 C 160.287 173.394,161.090 173.890,161.410 174.212 C 161.757 174.563,162.778 174.989,163.950 175.273 C 165.028 175.534,166.451 176.020,167.112 176.354 C 169.381 177.499,175.504 177.434,177.563 176.244 C 178.065 175.954,179.258 175.522,180.214 175.285 C 181.170 175.048,182.253 174.613,182.620 174.318 C 182.988 174.023,183.685 173.601,184.169 173.380 C 184.906 173.043,187.038 171.031,190.573 167.334 C 190.948 166.941,191.448 166.049,191.684 165.351 C 192.359 163.352,192.792 163.271,194.396 164.844 C 195.317 165.748,195.851 166.537,196.057 167.298 C 196.270 168.087,196.878 168.957,198.113 170.237 C 199.077 171.237,200.047 172.308,200.267 172.616 C 201.493 174.329,202.601 174.921,205.557 175.444 C 207.133 175.723,208.979 176.133,209.659 176.355 C 210.496 176.628,211.700 176.734,213.379 176.682 L 215.863 176.604 216.200 175.668 C 216.724 174.214,216.712 162.476,216.186 162.040 C 215.971 161.861,215.026 161.620,214.087 161.504 C 212.080 161.255,211.505 160.986,209.893 159.541 C 207.640 157.523,207.769 158.737,207.761 139.523 C 207.757 129.124,207.652 122.228,207.493 121.809 L 207.232 121.123 201.009 121.127 C 197.587 121.129,194.649 121.220,194.482 121.328 M256.993 133.440 C 256.648 133.579,256.060 133.932,255.687 134.226 C 255.313 134.519,254.791 134.759,254.526 134.759 C 254.260 134.759,253.469 135.256,252.767 135.864 C 251.598 136.876,248.585 138.503,247.880 138.503 C 247.579 138.503,247.125 137.599,246.471 135.695 C 246.009 134.351,244.255 134.020,242.966 135.034 L 242.246 135.600 242.246 156.049 L 242.246 176.498 243.244 176.915 C 243.953 177.211,244.658 177.283,245.678 177.163 C 248.399 176.843,248.128 178.837,248.128 159.141 C 248.128 139.821,248.008 140.997,250.049 140.399 C 250.684 140.213,251.468 139.892,251.792 139.685 C 253.994 138.280,261.749 138.144,263.166 139.486 C 263.645 139.939,264.304 140.447,264.630 140.614 C 266.291 141.466,266.663 145.954,266.436 162.389 L 266.238 176.656 267.462 176.965 C 268.998 177.351,270.006 177.355,271.092 176.976 L 271.943 176.679 271.915 159.178 C 271.885 139.733,271.737 141.144,273.873 140.510 C 274.615 140.290,275.444 139.909,275.714 139.665 C 276.642 138.825,283.975 138.162,285.979 138.736 C 286.950 139.015,289.461 141.385,289.840 142.380 C 290.008 142.821,290.107 149.329,290.107 159.878 C 290.107 179.251,289.780 177.375,293.135 177.234 C 296.640 177.086,296.301 179.102,296.185 159.113 C 296.074 139.871,295.988 138.801,294.432 137.433 C 294.014 137.066,293.485 136.464,293.256 136.096 C 293.019 135.715,292.282 135.221,291.540 134.947 C 290.826 134.683,289.759 134.205,289.171 133.885 C 288.290 133.406,287.552 133.286,284.986 133.202 L 281.870 133.100 279.071 134.451 C 277.531 135.193,276.202 135.981,276.117 136.202 C 276.033 136.423,275.568 136.808,275.084 137.058 C 274.600 137.308,273.884 137.856,273.492 138.275 C 273.101 138.694,272.653 139.037,272.498 139.037 C 272.149 139.037,269.251 136.235,269.251 135.897 C 269.251 135.636,268.899 135.452,266.578 134.499 C 263.489 133.232,263.237 133.179,260.428 133.184 C 258.884 133.187,257.338 133.302,256.993 133.440 M315.320 133.436 C 314.702 133.558,313.980 133.773,313.716 133.914 C 313.451 134.056,311.912 134.371,310.294 134.614 C 306.559 135.177,305.801 135.457,305.977 136.203 C 306.050 136.512,306.193 137.453,306.293 138.294 C 306.394 139.135,306.647 139.965,306.854 140.137 C 307.451 140.632,311.044 140.266,312.121 139.600 C 314.210 138.309,324.385 138.180,325.878 139.426 C 326.277 139.759,326.994 140.232,327.471 140.476 C 327.947 140.720,328.584 141.369,328.885 141.917 C 329.187 142.466,329.721 143.312,330.073 143.797 C 330.820 144.826,331.124 146.744,330.971 149.453 C 330.791 152.636,329.600 153.421,326.748 152.236 C 324.254 151.200,316.484 151.215,314.463 152.260 C 314.061 152.468,312.678 152.935,311.388 153.298 C 309.913 153.713,308.908 154.152,308.677 154.482 C 308.475 154.771,307.948 155.156,307.506 155.339 C 307.064 155.523,306.627 155.908,306.536 156.196 C 306.445 156.484,306.016 157.123,305.583 157.616 C 304.162 159.234,303.617 163.886,304.280 168.730 C 304.616 171.185,304.792 171.637,305.922 172.937 C 306.341 173.420,306.684 173.990,306.684 174.204 C 306.684 174.417,307.136 174.780,307.687 175.011 C 308.239 175.241,308.991 175.709,309.358 176.051 C 310.590 177.198,311.771 177.387,317.513 177.357 C 324.367 177.322,324.528 177.277,327.226 174.596 C 330.468 171.377,331.762 171.529,332.719 175.243 C 333.214 177.162,333.358 177.263,335.606 177.269 C 338.552 177.275,338.875 176.540,337.659 172.593 C 337.116 170.830,337.071 169.963,336.882 157.620 C 336.657 142.947,336.540 141.619,335.352 140.265 C 334.910 139.762,334.408 138.925,334.236 138.405 C 334.065 137.884,333.696 137.386,333.418 137.298 C 333.139 137.210,332.601 136.768,332.221 136.317 C 331.729 135.733,330.978 135.323,329.603 134.891 C 328.542 134.557,327.132 134.033,326.471 133.725 C 325.172 133.123,317.866 132.933,315.320 133.436 M347.603 135.009 C 347.180 135.800,347.222 176.527,347.647 176.952 C 348.095 177.400,351.869 177.360,352.473 176.901 C 353.153 176.385,353.202 136.053,352.525 135.086 C 351.935 134.245,348.045 134.184,347.603 135.009 M175.188 147.952 C 175.700 148.343,176.248 148.663,176.405 148.663 C 176.747 148.663,177.652 149.770,178.726 151.498 C 179.742 153.133,179.822 155.625,178.901 156.918 C 178.583 157.365,178.194 158.100,178.036 158.552 C 177.878 159.007,177.404 159.553,176.976 159.774 C 176.551 159.994,176.203 160.288,176.203 160.428 C 176.203 161.504,170.232 162.014,168.750 161.065 C 167.663 160.369,165.526 158.102,165.235 157.338 C 164.474 155.336,165.211 150.267,166.263 150.267 C 166.389 150.267,166.632 149.960,166.803 149.585 C 166.975 149.207,167.558 148.717,168.111 148.486 C 168.660 148.257,169.411 147.829,169.782 147.536 C 170.803 146.726,173.893 146.964,175.188 147.952 M330.312 157.239 L 331.016 157.793 331.016 163.195 C 331.016 168.751,330.832 169.786,329.844 169.786 C 329.656 169.786,328.944 170.157,328.261 170.609 C 327.349 171.213,326.535 171.491,325.207 171.653 C 324.211 171.774,322.226 172.020,320.795 172.199 C 318.772 172.453,317.704 172.455,315.982 172.208 C 312.803 171.751,312.487 171.626,311.985 170.624 C 311.739 170.132,311.287 169.463,310.982 169.139 C 309.847 167.930,309.631 163.421,310.621 161.594 C 310.849 161.173,311.219 160.468,311.442 160.027 C 313.012 156.931,313.593 156.769,323.293 156.718 C 329.303 156.686,329.641 156.711,330.312 157.239 " stroke="none" fill="#0d0d0d" fill-rule="evenodd"></path><path id="path1" d="M80.979 148.517 C 78.324 149.117,78.129 149.187,77.360 149.824 C 76.944 150.168,76.199 150.587,75.704 150.756 C 74.129 151.294,70.023 155.059,68.875 157.019 C 68.466 157.717,68.032 158.289,67.911 158.289 C 67.790 158.289,67.481 158.860,67.224 159.559 C 66.967 160.257,66.486 161.198,66.156 161.649 C 64.998 163.230,64.364 171.016,65.177 173.663 C 65.468 174.609,65.121 175.586,64.415 175.810 C 63.411 176.128,56.193 174.914,55.005 174.226 C 54.385 173.867,53.352 173.435,52.711 173.266 C 52.070 173.096,51.276 172.668,50.947 172.313 C 50.619 171.959,49.856 171.448,49.253 171.178 C 48.650 170.908,47.820 170.357,47.407 169.953 C 46.995 169.549,45.996 168.591,45.187 167.824 C 44.378 167.056,43.486 166.070,43.203 165.634 C 42.921 165.197,42.487 164.694,42.238 164.517 C 41.990 164.339,41.514 163.557,41.180 162.779 C 40.846 162.000,40.296 161.034,39.958 160.631 C 39.620 160.228,39.201 159.211,39.027 158.371 C 38.372 155.219,37.096 154.230,35.449 155.597 C 33.783 156.980,35.609 168.697,37.876 171.175 C 38.186 171.514,38.632 172.171,38.866 172.635 C 39.101 173.099,39.454 173.641,39.651 173.838 C 39.848 174.036,40.374 174.703,40.821 175.320 C 41.689 176.520,43.267 177.894,45.141 179.080 C 45.777 179.483,46.658 180.127,47.099 180.512 C 47.540 180.896,48.401 181.361,49.014 181.544 C 49.626 181.728,50.458 182.156,50.863 182.497 C 51.268 182.837,52.292 183.255,53.139 183.424 C 53.986 183.593,56.003 184.155,57.620 184.672 L 60.561 185.613 65.241 185.503 C 69.536 185.402,70.051 185.337,71.524 184.706 C 72.406 184.328,74.015 183.863,75.099 183.672 C 76.394 183.444,77.448 183.067,78.174 182.572 C 78.781 182.158,79.713 181.699,80.245 181.551 C 80.777 181.403,81.499 180.998,81.849 180.650 C 82.200 180.303,83.028 179.746,83.690 179.413 C 84.352 179.080,85.005 178.614,85.142 178.378 C 85.280 178.141,85.791 177.537,86.279 177.034 C 86.767 176.532,87.166 176.038,87.166 175.936 C 87.166 175.762,88.609 173.979,90.760 171.495 C 91.283 170.891,91.711 170.240,91.711 170.049 C 91.711 169.859,92.029 169.286,92.417 168.777 C 92.806 168.268,93.355 167.234,93.637 166.479 C 93.920 165.724,94.413 164.566,94.732 163.904 C 95.588 162.133,95.742 156.968,94.985 155.457 C 94.697 154.882,94.382 154.083,94.285 153.681 C 94.024 152.595,92.618 151.134,91.633 150.926 C 91.161 150.827,90.463 150.453,90.082 150.095 C 88.662 148.764,83.697 147.904,80.979 148.517 " stroke="none" fill="#fc0c22" fill-rule="evenodd"></path><path id="path2" d="M58.535 118.698 C 58.008 118.801,56.925 119.146,56.128 119.465 C 55.331 119.783,53.932 120.215,53.020 120.423 C 52.107 120.632,51.019 121.046,50.601 121.343 C 50.184 121.640,49.186 122.174,48.384 122.529 C 47.582 122.885,46.765 123.369,46.569 123.606 C 46.374 123.843,45.701 124.285,45.075 124.588 C 43.829 125.192,39.424 129.372,38.020 131.283 C 37.268 132.308,35.856 134.414,35.254 135.408 C 34.595 136.499,32.905 140.408,32.761 141.176 C 32.665 141.691,32.420 142.654,32.218 143.316 C 30.726 148.202,30.346 153.011,31.184 156.417 C 31.419 157.373,31.706 158.576,31.821 159.091 C 32.528 162.260,33.262 164.616,33.809 165.467 C 34.154 166.004,34.586 166.925,34.769 167.513 C 34.952 168.102,35.506 169.034,36.000 169.586 C 36.494 170.138,36.898 170.706,36.898 170.847 C 36.898 170.989,37.429 171.703,38.078 172.433 C 38.727 173.164,39.331 173.992,39.420 174.273 C 39.509 174.555,39.909 174.934,40.307 175.115 L 41.032 175.446 40.503 174.830 C 40.212 174.492,39.820 174.049,39.633 173.847 C 39.446 173.644,39.101 173.099,38.866 172.635 C 38.632 172.171,38.186 171.514,37.876 171.175 C 35.609 168.697,33.783 156.980,35.449 155.597 C 37.096 154.230,38.372 155.219,39.027 158.371 C 39.201 159.211,39.620 160.228,39.958 160.631 C 40.296 161.034,40.846 162.000,41.180 162.779 C 41.514 163.557,41.990 164.339,42.238 164.517 C 42.487 164.694,42.921 165.197,43.203 165.634 C 43.486 166.070,44.378 167.056,45.187 167.824 C 45.996 168.591,46.995 169.549,47.407 169.953 C 47.820 170.357,48.650 170.908,49.253 171.178 C 49.856 171.448,50.619 171.959,50.947 172.313 C 51.276 172.668,52.070 173.096,52.711 173.266 C 53.352 173.435,54.385 173.867,55.005 174.226 C 56.193 174.914,63.411 176.128,64.415 175.810 C 65.121 175.586,65.468 174.609,65.177 173.663 C 64.364 171.016,64.998 163.230,66.156 161.649 C 66.486 161.198,66.967 160.257,67.224 159.559 C 67.481 158.860,67.790 158.289,67.911 158.289 C 68.032 158.289,68.466 157.717,68.875 157.019 C 70.027 155.052,74.137 151.287,75.704 150.762 C 76.199 150.596,76.845 150.252,77.139 149.996 C 78.282 149.004,82.579 147.932,84.293 148.212 C 86.707 148.606,89.442 149.496,90.082 150.095 C 90.463 150.453,91.161 150.827,91.633 150.926 C 92.618 151.134,94.024 152.595,94.285 153.681 C 94.382 154.083,94.697 154.882,94.985 155.457 C 95.524 156.532,95.588 161.865,95.078 163.235 C 94.900 163.715,94.911 163.721,95.182 163.298 C 95.349 163.039,95.604 162.076,95.748 161.159 C 95.892 160.242,96.216 158.951,96.468 158.289 C 97.033 156.801,97.129 146.535,96.586 145.553 C 96.413 145.239,96.136 144.096,95.971 143.012 C 95.789 141.821,95.377 140.514,94.926 139.706 C 94.517 138.971,93.983 137.755,93.740 137.004 C 93.497 136.253,93.001 135.359,92.638 135.019 C 92.275 134.678,91.979 134.247,91.979 134.061 C 91.979 133.875,91.527 133.176,90.976 132.509 C 90.424 131.841,89.372 130.495,88.636 129.517 C 86.254 126.348,85.020 125.010,84.011 124.501 C 83.467 124.227,82.781 123.784,82.487 123.517 C 82.193 123.249,81.383 122.787,80.687 122.489 C 79.991 122.192,79.088 121.704,78.681 121.405 C 78.033 120.929,76.503 120.417,70.998 118.832 C 69.585 118.425,60.433 118.327,58.535 118.698 " stroke="none" fill="#fc9f04" fill-rule="evenodd"></path><path id="path3" d="M347.405 116.047 C 347.080 116.178,346.513 116.761,346.145 117.344 C 345.777 117.927,345.351 118.482,345.198 118.576 C 345.037 118.676,344.922 119.786,344.925 121.206 L 344.931 123.663 346.396 125.201 L 347.860 126.738 349.988 126.738 L 352.116 126.738 353.594 125.224 C 355.756 123.010,355.992 120.333,354.261 117.661 C 353.117 115.894,349.751 115.102,347.405 116.047 M363.185 116.070 C 361.064 116.684,361.230 114.046,361.230 147.112 C 361.230 165.774,361.326 176.684,361.492 176.995 C 362.203 178.324,368.522 178.612,369.507 177.361 L 370.069 176.646 369.994 146.946 C 369.953 130.611,369.823 117.052,369.705 116.814 C 369.216 115.835,365.475 115.408,363.185 116.070 M352.348 117.179 C 353.557 118.649,353.725 123.078,352.618 124.257 C 351.705 125.229,348.134 125.164,347.346 124.162 C 346.264 122.787,346.832 117.359,348.093 117.023 C 349.118 116.750,352.085 116.859,352.348 117.179 M368.817 117.948 C 369.155 119.641,369.007 176.608,368.663 176.952 C 368.247 177.368,364.687 177.374,363.778 176.960 L 363.092 176.648 363.164 147.322 C 363.246 113.575,362.878 117.112,366.309 117.112 L 368.650 117.112 368.817 117.948 M62.646 118.381 C 63.792 118.431,65.597 118.431,66.657 118.380 C 67.716 118.329,66.778 118.288,64.572 118.289 C 62.366 118.289,61.499 118.331,62.646 118.381 M72.861 119.395 C 73.302 119.597,73.844 119.758,74.064 119.754 C 74.285 119.749,74.044 119.583,73.529 119.385 C 72.309 118.915,71.828 118.922,72.861 119.395 M193.056 120.522 C 191.777 121.166,191.768 121.237,191.738 130.699 C 191.708 140.076,191.422 141.699,190.240 139.208 C 190.006 138.714,189.529 138.180,189.181 138.021 C 188.834 137.863,188.474 137.498,188.383 137.211 C 188.292 136.924,187.857 136.539,187.417 136.357 C 186.977 136.175,186.392 135.709,186.116 135.322 C 185.841 134.935,185.152 134.456,184.586 134.256 C 184.019 134.057,183.316 133.682,183.021 133.424 C 182.163 132.671,181.469 132.395,179.732 132.115 C 178.789 131.963,177.745 131.590,177.262 131.233 C 175.930 130.249,168.758 130.131,167.380 131.071 C 166.829 131.447,165.519 131.891,164.196 132.151 C 162.331 132.518,161.821 132.732,161.203 133.409 C 160.793 133.858,160.207 134.225,159.901 134.225 C 159.332 134.225,158.790 134.664,155.654 137.660 C 154.676 138.594,153.537 139.601,153.121 139.899 C 152.705 140.197,152.261 140.696,152.135 141.009 C 151.991 141.367,151.899 140.139,151.889 137.699 C 151.857 130.564,152.069 130.747,143.871 130.755 C 133.750 130.764,134.497 129.665,134.476 144.572 C 134.459 156.339,134.335 158.227,133.546 158.682 C 133.071 158.956,132.560 159.444,131.844 160.308 C 131.003 161.323,128.104 160.710,126.589 159.197 C 124.907 157.518,124.905 157.491,124.883 143.387 L 124.866 132.629 124.086 131.756 L 123.307 130.882 116.239 130.796 L 109.171 130.710 108.482 131.529 C 107.479 132.721,107.428 133.651,107.565 148.396 C 107.695 162.381,107.800 163.647,108.943 165.005 C 109.307 165.437,109.678 166.182,109.767 166.660 C 109.857 167.138,110.260 167.907,110.664 168.369 C 111.067 168.831,111.612 169.686,111.875 170.269 C 112.138 170.852,112.636 171.458,112.982 171.615 C 113.328 171.773,113.791 172.251,114.012 172.677 C 114.269 173.174,114.876 173.652,115.705 174.009 C 116.417 174.315,117.224 174.814,117.499 175.118 C 117.774 175.422,118.492 175.800,119.093 175.958 C 119.695 176.115,120.608 176.527,121.123 176.873 C 123.663 178.579,135.690 178.580,138.235 176.874 C 138.750 176.530,139.627 176.126,140.184 175.977 C 140.741 175.828,141.618 175.337,142.132 174.885 C 142.646 174.434,143.244 174.064,143.462 174.064 C 143.983 174.064,146.873 171.188,147.426 170.119 C 147.665 169.658,148.164 168.952,148.535 168.551 C 148.907 168.150,149.279 167.512,149.363 167.133 C 149.669 165.746,149.775 165.508,150.085 165.512 C 150.672 165.520,152.080 166.994,152.647 168.193 C 152.965 168.867,153.558 169.583,154.011 169.841 C 154.452 170.091,154.813 170.481,154.813 170.706 C 154.813 170.932,155.285 171.414,155.861 171.778 C 156.438 172.142,156.984 172.674,157.074 172.960 C 157.165 173.246,157.746 173.680,158.366 173.926 C 158.985 174.172,159.793 174.652,160.160 174.993 C 160.528 175.335,161.521 175.829,162.366 176.091 C 163.212 176.354,163.904 176.657,163.904 176.765 C 163.904 178.326,178.179 178.506,179.720 176.964 C 180.035 176.650,181.037 176.230,181.996 176.011 C 183.249 175.725,183.822 175.447,184.131 174.976 C 184.363 174.622,184.716 174.332,184.915 174.332 C 185.562 174.332,190.642 169.704,190.642 169.114 C 190.642 168.929,190.932 168.588,191.286 168.356 C 191.641 168.123,192.078 167.478,192.257 166.921 C 192.437 166.365,192.641 165.808,192.712 165.685 C 192.948 165.275,195.181 167.764,195.452 168.738 C 195.616 169.326,196.416 170.432,197.525 171.602 C 198.519 172.650,199.614 173.876,199.959 174.327 C 200.694 175.288,201.597 175.790,203.067 176.057 C 203.650 176.163,204.640 176.549,205.265 176.916 C 207.331 178.127,215.628 178.491,217.229 177.442 C 218.375 176.691,218.463 176.038,218.387 168.783 L 218.316 161.956 217.647 161.460 C 217.279 161.188,216.257 160.835,215.374 160.677 C 214.492 160.519,213.342 160.097,212.820 159.740 C 212.297 159.383,211.747 159.091,211.598 159.091 C 211.448 159.091,210.793 158.519,210.142 157.821 L 208.957 156.551 208.824 138.865 C 208.696 121.950,208.668 121.154,208.180 120.616 C 207.460 119.820,194.607 119.740,193.056 120.522 M207.493 121.809 C 207.652 122.228,207.757 129.124,207.761 139.523 C 207.769 158.737,207.640 157.523,209.893 159.541 C 211.505 160.986,212.080 161.255,214.087 161.504 C 215.026 161.620,215.971 161.861,216.186 162.040 C 216.712 162.476,216.724 174.214,216.200 175.668 L 215.863 176.604 213.379 176.682 C 211.700 176.734,210.496 176.628,209.659 176.355 C 208.979 176.133,207.133 175.723,205.557 175.444 C 202.601 174.921,201.493 174.329,200.267 172.616 C 200.047 172.308,199.077 171.237,198.113 170.237 C 196.878 168.957,196.270 168.087,196.057 167.298 C 195.851 166.537,195.317 165.748,194.396 164.844 C 192.792 163.271,192.359 163.352,191.684 165.351 C 191.448 166.049,190.948 166.941,190.573 167.334 C 187.038 171.031,184.906 173.043,184.169 173.380 C 183.685 173.601,182.988 174.023,182.620 174.318 C 182.253 174.613,181.170 175.048,180.214 175.285 C 179.258 175.522,178.065 175.954,177.563 176.244 C 175.504 177.434,169.381 177.499,167.112 176.354 C 166.451 176.020,165.028 175.534,163.950 175.273 C 162.778 174.989,161.757 174.563,161.410 174.212 C 161.090 173.890,160.287 173.394,159.626 173.110 C 158.586 172.665,158.029 172.229,156.164 170.408 C 154.776 169.052,153.851 167.870,153.281 166.721 C 152.913 165.980,152.012 164.835,151.279 164.175 L 149.946 162.976 149.436 163.605 C 149.156 163.952,148.851 164.711,148.758 165.292 C 148.661 165.893,148.229 166.780,147.753 167.348 C 147.294 167.898,146.697 168.838,146.427 169.437 C 146.157 170.037,145.645 170.659,145.290 170.821 C 144.935 170.983,144.513 171.403,144.353 171.755 C 144.186 172.121,143.480 172.666,142.703 173.029 C 141.956 173.378,141.090 173.937,140.779 174.272 C 140.403 174.675,139.483 175.055,138.050 175.397 C 136.861 175.681,135.363 176.189,134.722 176.525 C 132.942 177.459,126.387 177.445,124.599 176.503 C 123.937 176.154,122.434 175.638,121.260 175.356 C 119.919 175.035,118.873 174.610,118.452 174.216 C 118.083 173.871,117.299 173.345,116.711 173.049 C 115.240 172.306,113.207 170.289,112.696 169.064 C 112.463 168.505,111.934 167.687,111.520 167.246 C 111.026 166.719,110.618 165.830,110.331 164.655 C 110.091 163.671,109.594 162.300,109.226 161.607 L 108.556 160.348 108.556 146.936 C 108.556 136.389,108.630 133.424,108.902 133.052 C 109.347 132.443,122.591 132.486,123.328 133.099 C 123.689 133.398,123.758 135.027,123.856 145.532 C 123.981 158.976,123.915 158.496,125.870 160.317 L 127.138 161.497 129.741 161.497 L 132.344 161.497 133.524 160.361 C 134.435 159.484,134.863 158.763,135.400 157.199 L 136.096 155.174 136.096 144.428 L 136.096 133.682 136.965 133.152 C 137.764 132.665,138.325 132.622,143.902 132.621 C 151.427 132.620,150.802 132.132,150.802 138.012 C 150.802 142.031,150.830 142.248,151.426 142.942 L 152.050 143.667 152.563 142.904 C 153.732 141.164,159.878 135.340,160.889 135.017 C 161.444 134.839,162.314 134.382,162.823 134.002 C 165.559 131.956,179.330 131.925,181.229 133.960 C 181.480 134.228,182.329 134.702,183.116 135.012 C 183.903 135.322,184.905 135.933,185.342 136.371 C 185.780 136.808,186.254 137.166,186.397 137.166 C 186.767 137.166,189.171 139.618,189.607 140.441 C 189.808 140.820,190.625 141.578,191.422 142.125 C 193.635 143.643,193.583 143.868,193.584 132.903 C 193.586 123.849,193.744 121.803,194.482 121.328 C 194.649 121.220,197.587 121.129,201.009 121.127 L 207.232 121.123 207.493 121.809 M81.417 122.772 C 81.711 122.935,82.198 123.262,82.500 123.499 C 82.801 123.736,82.709 123.600,82.295 123.195 C 81.881 122.791,81.394 122.464,81.212 122.468 C 81.031 122.472,81.123 122.609,81.417 122.772 M42.898 126.003 L 42.112 126.872 42.981 126.086 C 43.459 125.654,43.850 125.263,43.850 125.217 C 43.850 125.011,43.630 125.193,42.898 126.003 M86.363 126.605 C 86.877 127.193,87.403 127.794,87.532 127.941 C 87.661 128.088,87.641 127.968,87.489 127.674 C 87.336 127.380,86.810 126.778,86.320 126.337 L 85.428 125.536 86.363 126.605 M90.107 131.634 C 90.107 131.680,90.498 132.072,90.976 132.503 L 91.845 133.289 91.060 132.420 C 90.328 131.610,90.107 131.428,90.107 131.634 M256.174 132.376 C 255.526 132.503,254.744 132.837,254.436 133.118 C 254.129 133.399,253.396 133.873,252.807 134.170 C 252.219 134.467,251.385 135.082,250.953 135.537 C 250.316 136.208,249.953 136.364,249.033 136.364 L 247.899 136.364 247.485 134.940 C 246.877 132.849,246.414 132.536,244.127 132.665 C 242.504 132.757,242.138 132.874,241.508 133.504 L 240.775 134.237 240.704 155.575 L 240.632 176.914 241.199 177.428 C 242.202 178.337,247.881 178.346,248.787 177.441 L 249.465 176.762 249.465 159.253 C 249.465 149.622,249.565 141.681,249.687 141.606 C 249.808 141.531,251.131 141.286,252.627 141.063 C 254.122 140.839,255.881 140.412,256.535 140.114 C 258.457 139.239,260.408 139.369,261.965 140.476 C 262.663 140.973,263.493 141.458,263.808 141.554 C 264.771 141.848,264.802 142.378,264.904 159.952 L 265.002 176.989 265.692 177.532 C 266.479 178.151,270.866 178.323,272.382 177.795 C 273.857 177.280,273.825 177.718,273.741 159.023 L 273.663 141.717 274.425 141.451 C 274.844 141.305,275.987 141.108,276.965 141.013 C 277.943 140.917,279.432 140.554,280.273 140.206 C 281.335 139.766,282.322 139.572,283.506 139.572 L 285.210 139.572 286.990 141.243 C 289.431 143.535,289.305 142.456,289.305 160.986 C 289.305 180.248,288.790 178.178,293.547 178.037 C 296.514 177.948,296.800 177.893,297.449 177.283 L 298.150 176.624 298.072 159.324 L 297.995 142.023 297.387 141.201 C 297.052 140.748,296.663 139.773,296.523 139.032 C 296.207 137.365,295.926 136.826,295.085 136.275 C 294.722 136.037,294.352 135.611,294.262 135.327 C 294.172 135.043,293.651 134.604,293.105 134.352 C 292.559 134.099,291.811 133.613,291.444 133.272 C 289.686 131.641,279.830 131.633,278.086 133.262 C 277.712 133.611,277.017 134.093,276.540 134.333 C 276.063 134.574,275.477 135.070,275.237 135.437 C 274.997 135.803,274.513 136.175,274.161 136.263 C 273.809 136.351,273.295 136.711,273.019 137.062 C 272.461 137.771,272.193 137.870,272.191 137.366 C 272.189 136.832,269.694 134.572,268.604 134.117 C 268.056 133.888,267.406 133.452,267.160 133.149 C 266.391 132.203,259.517 131.719,256.174 132.376 M314.305 132.257 C 311.447 132.478,309.266 132.922,308.647 133.408 C 308.294 133.686,307.498 133.997,306.877 134.100 C 305.393 134.347,304.355 134.897,304.149 135.545 C 303.940 136.205,304.429 138.073,304.916 138.478 C 305.118 138.645,305.359 139.162,305.452 139.627 C 305.734 141.037,306.305 141.444,307.996 141.441 C 310.316 141.438,316.101 140.692,317.408 140.228 C 319.882 139.350,321.497 139.457,324.686 140.709 L 327.581 141.845 328.208 143.406 C 328.554 144.264,329.053 145.205,329.317 145.497 C 329.821 146.054,330.159 149.115,329.852 150.338 C 329.703 150.933,329.637 150.946,327.617 150.762 C 321.215 150.180,312.966 150.607,311.923 151.575 C 311.615 151.861,310.652 152.279,309.782 152.504 C 308.867 152.741,307.909 153.201,307.509 153.595 C 305.992 155.090,305.571 155.521,304.675 156.493 C 304.163 157.049,303.743 157.591,303.742 157.696 C 303.733 158.837,303.116 161.109,302.643 161.750 C 301.714 163.006,301.749 166.445,302.711 168.449 C 303.099 169.258,303.503 170.559,303.608 171.340 C 303.764 172.507,303.984 172.945,304.840 173.793 C 305.413 174.360,305.882 174.952,305.882 175.107 C 305.882 175.263,306.364 175.636,306.952 175.936 C 307.540 176.236,308.021 176.597,308.021 176.737 C 308.021 177.296,309.407 177.842,311.684 178.182 C 312.999 178.379,314.330 178.676,314.641 178.842 C 315.407 179.252,317.184 179.216,319.118 178.749 C 320.000 178.536,321.684 178.288,322.861 178.197 C 325.386 178.002,326.393 177.672,326.617 176.967 C 326.707 176.683,327.252 176.153,327.829 175.789 C 328.405 175.425,328.877 174.963,328.877 174.762 C 328.877 174.561,329.058 174.247,329.279 174.064 C 329.692 173.720,331.818 175.649,331.818 176.368 C 331.818 177.599,332.866 178.075,335.581 178.075 C 339.173 178.075,339.424 177.846,339.200 174.772 C 339.112 173.574,338.971 166.517,338.886 159.091 C 338.738 146.200,338.707 145.555,338.202 144.845 C 337.910 144.435,337.502 143.118,337.291 141.904 C 336.987 140.156,336.768 139.583,336.222 139.106 C 335.845 138.776,335.361 138.087,335.147 137.575 C 334.932 137.062,334.406 136.462,333.975 136.239 C 333.545 136.017,333.124 135.623,333.040 135.364 C 332.954 135.099,331.689 134.311,330.147 133.561 L 327.406 132.229 321.524 132.192 C 318.289 132.171,315.040 132.200,314.305 132.257 M36.497 133.155 C 36.269 133.596,36.143 133.957,36.216 133.957 C 36.290 133.957,36.537 133.596,36.765 133.155 C 36.993 132.714,37.119 132.353,37.046 132.353 C 36.972 132.353,36.725 132.714,36.497 133.155 M347.219 133.033 C 346.297 133.955,346.246 135.281,346.319 156.418 C 346.402 180.826,345.910 178.075,350.197 178.075 C 352.780 178.075,353.009 178.031,353.622 177.419 L 354.278 176.762 354.277 156.229 C 354.275 134.921,354.238 134.172,353.145 133.153 C 352.389 132.449,347.894 132.358,347.219 133.033 M264.171 133.537 C 265.419 134.016,267.902 135.036,268.650 135.377 C 268.981 135.528,269.251 135.762,269.251 135.897 C 269.251 136.235,272.149 139.037,272.498 139.037 C 272.653 139.037,273.101 138.694,273.492 138.275 C 273.884 137.856,274.600 137.308,275.084 137.058 C 275.568 136.808,276.033 136.423,276.117 136.202 C 276.202 135.981,277.531 135.193,279.071 134.451 L 281.870 133.100 284.986 133.202 C 287.552 133.286,288.290 133.406,289.171 133.885 C 289.759 134.205,290.826 134.683,291.540 134.947 C 292.282 135.221,293.019 135.715,293.256 136.096 C 293.485 136.464,294.014 137.066,294.432 137.433 C 295.988 138.801,296.074 139.871,296.185 159.113 C 296.301 179.102,296.640 177.086,293.135 177.234 C 289.780 177.375,290.107 179.251,290.107 159.878 C 290.107 149.329,290.008 142.821,289.840 142.380 C 289.461 141.385,286.950 139.015,285.979 138.736 C 283.975 138.162,276.642 138.825,275.714 139.665 C 275.444 139.909,274.615 140.290,273.873 140.510 C 271.737 141.144,271.885 139.733,271.915 159.178 L 271.943 176.679 271.092 176.976 C 270.006 177.355,268.998 177.351,267.462 176.965 L 266.238 176.656 266.436 162.389 C 266.663 145.954,266.291 141.466,264.630 140.614 C 264.304 140.447,263.645 139.939,263.166 139.486 C 261.749 138.144,253.994 138.280,251.792 139.685 C 251.468 139.892,250.684 140.213,250.049 140.399 C 248.008 140.997,248.128 139.821,248.128 159.141 C 248.128 178.837,248.399 176.843,245.678 177.163 C 244.658 177.283,243.953 177.211,243.244 176.915 L 242.246 176.498 242.246 156.049 L 242.246 135.600 242.966 135.034 C 244.255 134.020,246.009 134.351,246.471 135.695 C 247.125 137.599,247.579 138.503,247.880 138.503 C 248.585 138.503,251.598 136.876,252.767 135.864 C 253.469 135.256,254.260 134.759,254.526 134.759 C 254.791 134.759,255.313 134.519,255.687 134.226 C 257.096 133.117,262.032 132.717,264.171 133.537 M326.471 133.725 C 327.132 134.033,328.542 134.557,329.603 134.891 C 330.978 135.323,331.729 135.733,332.221 136.317 C 332.601 136.768,333.139 137.210,333.418 137.298 C 333.696 137.386,334.065 137.884,334.236 138.405 C 334.408 138.925,334.910 139.762,335.352 140.265 C 336.540 141.619,336.657 142.947,336.882 157.620 C 337.071 169.963,337.116 170.830,337.659 172.593 C 338.875 176.540,338.552 177.275,335.606 177.269 C 333.358 177.263,333.214 177.162,332.719 175.243 C 331.762 171.529,330.468 171.377,327.226 174.596 C 324.528 177.277,324.367 177.322,317.513 177.357 C 311.771 177.387,310.590 177.198,309.358 176.051 C 308.991 175.709,308.239 175.241,307.687 175.011 C 307.136 174.780,306.684 174.417,306.684 174.204 C 306.684 173.990,306.341 173.420,305.922 172.937 C 304.792 171.637,304.616 171.185,304.280 168.730 C 303.617 163.886,304.162 159.234,305.583 157.616 C 306.016 157.123,306.445 156.484,306.536 156.196 C 306.627 155.908,307.064 155.523,307.506 155.339 C 307.948 155.156,308.475 154.771,308.677 154.482 C 308.908 154.152,309.913 153.713,311.388 153.298 C 312.678 152.935,314.061 152.468,314.463 152.260 C 316.484 151.215,324.254 151.200,326.748 152.236 C 329.600 153.421,330.791 152.636,330.971 149.453 C 331.124 146.744,330.820 144.826,330.073 143.797 C 329.721 143.312,329.187 142.466,328.885 141.917 C 328.584 141.369,327.947 140.720,327.471 140.476 C 326.994 140.232,326.277 139.759,325.878 139.426 C 324.385 138.180,314.210 138.309,312.121 139.600 C 311.044 140.266,307.451 140.632,306.854 140.137 C 306.647 139.965,306.394 139.135,306.293 138.294 C 306.193 137.453,306.050 136.512,305.977 136.203 C 305.801 135.457,306.559 135.177,310.294 134.614 C 311.912 134.371,313.451 134.056,313.716 133.914 C 315.457 132.984,324.582 132.848,326.471 133.725 M91.979 134.133 C 91.979 134.279,92.309 134.690,92.714 135.047 L 93.449 135.695 92.781 134.893 C 92.413 134.452,92.082 134.041,92.045 133.980 C 92.009 133.918,91.979 133.987,91.979 134.133 M352.525 135.086 C 353.202 136.053,353.153 176.385,352.473 176.901 C 351.869 177.360,348.095 177.400,347.647 176.952 C 347.222 176.527,347.180 135.800,347.603 135.009 C 348.045 134.184,351.935 134.245,352.525 135.086 M31.613 144.920 C 31.613 145.434,31.668 145.645,31.735 145.388 C 31.802 145.130,31.802 144.709,31.735 144.452 C 31.668 144.195,31.613 144.405,31.613 144.920 M96.872 147.326 C 96.872 148.135,96.922 148.466,96.983 148.061 C 97.044 147.657,97.044 146.995,96.983 146.591 C 96.922 146.186,96.872 146.517,96.872 147.326 M169.782 147.536 C 169.411 147.829,168.660 148.257,168.111 148.486 C 167.558 148.717,166.975 149.207,166.803 149.585 C 166.632 149.960,166.389 150.267,166.263 150.267 C 165.211 150.267,164.474 155.336,165.235 157.338 C 165.526 158.102,167.663 160.369,168.750 161.065 C 170.232 162.014,176.203 161.504,176.203 160.428 C 176.203 160.288,176.551 159.994,176.976 159.774 C 177.404 159.553,177.878 159.007,178.036 158.552 C 178.194 158.100,178.583 157.365,178.901 156.918 C 179.822 155.625,179.742 153.133,178.726 151.498 C 177.652 149.770,176.747 148.663,176.405 148.663 C 176.248 148.663,175.700 148.343,175.188 147.952 C 173.893 146.964,170.803 146.726,169.782 147.536 M97.161 152.005 C 97.161 153.770,97.205 154.457,97.257 153.532 C 97.309 152.607,97.309 151.164,97.256 150.324 C 97.203 149.484,97.160 150.241,97.161 152.005 M175.621 149.687 C 177.899 150.789,178.376 158.070,176.222 158.857 C 175.844 158.995,175.283 159.413,174.976 159.785 C 174.497 160.367,174.134 160.484,172.412 160.614 C 170.255 160.777,170.001 160.660,168.083 158.618 C 167.770 158.285,167.197 157.679,166.811 157.272 C 165.631 156.028,165.554 152.450,166.694 151.812 C 166.925 151.683,167.342 151.132,167.621 150.588 C 168.444 148.981,173.083 148.459,175.621 149.687 M30.575 151.872 C 30.575 153.122,30.621 153.633,30.677 153.008 C 30.733 152.383,30.733 151.360,30.677 150.735 C 30.621 150.110,30.575 150.622,30.575 151.872 M96.836 156.345 C 96.812 156.967,96.614 157.929,96.398 158.484 C 96.182 159.038,95.885 160.263,95.738 161.204 C 95.587 162.172,95.195 163.335,94.837 163.878 C 94.488 164.407,93.998 165.456,93.749 166.209 C 93.499 166.963,92.942 168.046,92.511 168.616 C 92.079 169.186,91.723 169.820,91.719 170.024 C 91.715 170.229,91.283 170.891,90.760 171.495 C 88.609 173.979,87.166 175.762,87.166 175.936 C 87.166 176.038,86.767 176.532,86.279 177.034 C 85.791 177.537,85.280 178.141,85.142 178.378 C 85.005 178.614,84.352 179.080,83.690 179.413 C 83.028 179.746,82.200 180.303,81.849 180.650 C 81.499 180.998,80.777 181.403,80.245 181.551 C 79.713 181.699,78.781 182.158,78.174 182.572 C 77.448 183.067,76.394 183.444,75.099 183.672 C 74.015 183.863,72.406 184.328,71.524 184.706 C 70.051 185.337,69.536 185.402,65.241 185.503 L 60.561 185.613 57.620 184.672 C 56.003 184.155,53.986 183.593,53.139 183.424 C 52.292 183.255,51.268 182.837,50.863 182.497 C 50.458 182.156,49.614 181.724,48.986 181.536 C 48.358 181.348,47.577 180.936,47.251 180.622 C 46.925 180.307,46.176 179.772,45.588 179.433 C 44.374 178.733,43.033 177.654,41.328 176.003 C 40.683 175.378,40.032 174.866,39.881 174.866 C 39.731 174.866,39.526 174.608,39.426 174.293 C 39.326 173.977,38.793 173.225,38.241 172.622 C 37.689 172.018,37.052 171.163,36.826 170.722 C 36.600 170.281,36.072 169.619,35.654 169.251 L 34.893 168.583 35.464 169.251 C 35.779 169.619,36.288 170.423,36.597 171.038 C 36.906 171.653,37.285 172.235,37.440 172.331 C 37.595 172.426,38.038 173.006,38.424 173.619 C 39.379 175.136,43.471 179.067,44.786 179.732 C 45.374 180.029,46.158 180.556,46.528 180.901 C 46.898 181.247,47.712 181.711,48.337 181.931 C 48.962 182.152,49.863 182.625,50.338 182.984 C 50.814 183.342,51.925 183.777,52.807 183.951 C 53.690 184.125,54.857 184.494,55.401 184.770 C 58.649 186.418,68.453 186.595,72.861 185.086 C 74.184 184.632,75.949 184.087,76.781 183.874 C 77.614 183.660,78.697 183.185,79.188 182.819 C 79.679 182.452,80.522 182.010,81.061 181.838 C 81.601 181.665,82.199 181.335,82.390 181.106 C 82.580 180.876,83.342 180.340,84.082 179.915 C 84.822 179.490,85.969 178.476,86.631 177.661 C 87.293 176.847,88.208 175.734,88.665 175.189 C 89.122 174.644,89.815 173.686,90.206 173.061 C 90.596 172.436,91.032 171.925,91.174 171.925 C 91.317 171.925,91.693 171.414,92.010 170.789 C 92.327 170.164,92.868 169.316,93.211 168.905 C 93.555 168.494,93.969 167.652,94.131 167.033 C 94.293 166.415,94.725 165.472,95.089 164.937 C 95.535 164.283,95.874 163.214,96.123 161.677 C 96.327 160.419,96.630 158.931,96.797 158.371 C 96.964 157.811,97.052 156.872,96.991 156.283 L 96.881 155.214 96.836 156.345 M315.642 156.957 C 313.194 157.333,312.582 157.780,311.442 160.027 C 311.219 160.468,310.849 161.173,310.621 161.594 C 309.631 163.421,309.847 167.930,310.982 169.139 C 311.287 169.463,311.739 170.132,311.985 170.624 C 312.487 171.626,312.803 171.751,315.982 172.208 C 317.704 172.455,318.772 172.453,320.795 172.199 C 322.226 172.020,324.211 171.774,325.207 171.653 C 326.535 171.491,327.349 171.213,328.261 170.609 C 328.944 170.157,329.656 169.786,329.844 169.786 C 330.832 169.786,331.016 168.751,331.016 163.195 L 331.016 157.793 330.312 157.239 C 329.560 156.648,318.976 156.444,315.642 156.957 M329.813 163.348 L 329.813 168.808 328.278 169.115 C 327.371 169.296,326.473 169.675,326.083 170.041 C 325.244 170.829,319.505 171.328,315.559 170.955 L 313.088 170.722 312.165 168.048 C 311.226 165.331,311.025 164.062,311.487 163.777 C 311.628 163.690,311.943 162.930,312.188 162.090 C 312.841 159.848,313.094 159.418,313.871 159.224 C 314.257 159.128,314.770 158.871,315.011 158.654 C 315.840 157.907,316.991 157.795,323.396 157.841 L 329.813 157.888 329.813 163.348 M33.895 166.085 C 34.297 166.917,34.663 167.562,34.708 167.518 C 34.841 167.389,34.052 165.690,33.589 165.107 C 33.355 164.813,33.493 165.253,33.895 166.085 " stroke="none" fill="#909090" fill-rule="evenodd"></path></g></svg>